<svg width="60" height="30" viewBox="0 0 60 30" fill="none" xmlns="http://www.w3.org/2000/svg">
<path d="M60 21.4286V7.61905C60 3.33333 56.6667 0 52.381 0H7.61905C3.33333 0 0 3.33333 0 7.61905V21.4286C0 25.7143 3.33333 29.0476 7.61905 29.0476H51.9048C56.1905 29.0476 60 25.7143 60 21.4286ZM19.0476 20.4762C18.5714 21.4286 16.6667 21.9048 14.7619 21.9048H8.09524V6.66667H14.2857C15.2381 6.66667 15.7143 7.14286 16.6667 7.14286C17.619 7.61905 18.0952 7.61905 18.5714 8.09524C19.0476 9.04762 19.5238 9.52381 19.5238 10.9524C19.5238 11.9048 19.0476 12.8571 18.5714 13.8095C18.0952 13.8095 18.0952 14.2857 18.0952 14.2857C18.0952 14.2857 17.619 14.2857 17.619 14.7619C18.5714 14.7619 19.5238 15.2381 20 16.1905C20 16.1905 20.4762 16.6667 20.4762 17.619C20.4762 19.0476 20 20 19.0476 20.4762ZM36.1905 15.2381C36.1905 17.619 35.7143 19.0476 34.2857 20.4762C33.3333 21.4286 31.4286 22.381 29.5238 22.381C27.619 22.381 26.1905 21.4286 24.7619 20.4762C23.8095 19.0476 22.8571 17.619 22.8571 15.2381V6.66667H26.1905V15.2381C26.1905 16.6667 26.6667 17.619 27.1429 18.0952C27.619 18.5714 28.5714 19.0476 29.5238 19.0476C30.4762 19.0476 31.4286 18.5714 31.9048 18.0952C32.381 17.619 32.8571 16.6667 32.8571 15.2381V6.66667H36.1905V15.2381ZM46.6667 16.1905V22.381H42.8571V16.1905L37.619 6.66667H41.4286L44.7619 12.381L48.0952 6.66667H51.9048L46.6667 16.1905Z" fill="#12ED60"/>
</svg>
