<svg width="56" height="36" viewBox="0 0 56 36" fill="none" xmlns="http://www.w3.org/2000/svg">
<path d="M27.9777 4.46564e-05C27.7828 0.00145869 27.59 0.0413381 27.4107 0.117285C27.2314 0.193232 27.0692 0.304036 26.9334 0.442729C26.7976 0.581421 26.691 0.745255 26.6198 0.925167C26.5486 1.10508 26.5143 1.29728 26.5187 1.49048V15.4997L23.144 12.1435C23.0075 12.0014 22.8434 11.8881 22.6616 11.8103C22.4797 11.7326 22.2839 11.692 22.0859 11.6911C21.7902 11.688 21.5004 11.7733 21.2544 11.936C21.0083 12.0987 20.8175 12.3309 20.7069 12.6027C20.5962 12.8746 20.5708 13.1734 20.634 13.4598C20.6973 13.7462 20.8462 14.0069 21.0613 14.208L26.6412 19.7719C26.7542 20.0276 26.9388 20.2456 27.1732 20.4002C27.4076 20.5549 27.6819 20.6398 27.9634 20.6445C28.245 20.6491 28.5219 20.5734 28.7614 20.4265C29.0009 20.2797 29.1928 20.0679 29.3142 19.8161L34.9387 14.208C35.0833 14.0734 35.1991 13.9112 35.2793 13.7313C35.3594 13.5515 35.4023 13.3576 35.4054 13.161C35.4085 12.9643 35.3717 12.7691 35.2972 12.5869C35.2227 12.4046 35.112 12.2388 34.9717 12.0997C34.8314 11.9607 34.6644 11.8512 34.4805 11.7773C34.2966 11.7035 34.0997 11.6671 33.9013 11.6702C33.7029 11.6732 33.5072 11.7157 33.3257 11.7952C33.1443 11.8746 32.9807 11.9895 32.8449 12.1328L29.459 15.5216V1.49048C29.4635 1.29542 29.4284 1.10148 29.3558 0.920114C29.2833 0.738742 29.1747 0.573637 29.0365 0.434643C28.8984 0.29565 28.7335 0.185518 28.5516 0.110884C28.3697 0.0362501 28.1746 -0.00148403 27.9777 4.46564e-05ZM49.5402 0.198815L37.9459 0.22105C37.556 0.22105 37.182 0.37462 36.9063 0.6479C36.6306 0.92118 36.4757 1.29166 36.4757 1.67813C36.4757 2.06461 36.6306 2.43543 36.9063 2.70871C37.182 2.98199 37.556 3.13556 37.9459 3.13556H49.529C51.4781 3.13556 53.0374 4.65895 53.0374 6.6019V29.608C53.0374 31.5509 51.4781 33.0855 49.5402 33.0855H6.43755C5.97652 33.0884 5.5195 33.0006 5.09313 32.8267C4.66675 32.6529 4.27954 32.3964 3.95406 32.0727C3.62857 31.7491 3.37131 31.3646 3.19727 30.9414C3.02323 30.5183 2.93589 30.065 2.94033 29.608V6.6019C2.94033 4.66999 4.4996 3.13556 6.44869 3.13556H18.0318C18.4217 3.13556 18.7957 2.98199 19.0714 2.70871C19.3471 2.43543 19.502 2.06461 19.502 1.67813C19.502 1.29166 19.3471 0.92118 19.0714 0.6479C18.7957 0.37462 18.4217 0.22105 18.0318 0.22105H6.44869C4.74122 0.223958 3.10436 0.896829 1.89595 2.09252C0.687542 3.28821 0.00588531 4.90949 0 6.6019V29.608C0 33.1296 2.89578 36.011 6.44869 36H49.5402C51.2515 36 52.8929 35.3269 54.104 34.1285C55.3152 32.9301 55.997 31.3042 56 29.608V6.6019C55.9941 4.90554 55.3117 3.28024 54.1015 2.08073C52.8913 0.88121 51.2516 0.204634 49.5402 0.198815ZM45.8202 23.3818C45.7681 23.3827 45.716 23.3865 45.6643 23.3929H10.3134C10.2615 23.3902 10.2095 23.3902 10.1575 23.3929C9.7676 23.4134 9.40188 23.5866 9.14079 23.8743C8.8797 24.1621 8.74464 24.541 8.76532 24.9275C8.78599 25.314 8.96072 25.6763 9.25105 25.9351C9.54138 26.1939 9.92353 26.3279 10.3134 26.3074H45.6643C45.8573 26.3176 46.0505 26.2897 46.2328 26.2259C46.4151 26.162 46.5829 26.0633 46.7267 25.9351C46.8704 25.807 46.9873 25.6519 47.0707 25.479C47.154 25.3061 47.2022 25.1188 47.2124 24.9275C47.2226 24.7361 47.1948 24.5445 47.1303 24.3638C47.0659 24.1832 46.9662 24.0168 46.8369 23.8743C46.7077 23.7318 46.5513 23.616 46.3769 23.5334C46.2024 23.4508 46.0133 23.4031 45.8202 23.3929V23.3818Z" fill="#12ED60"/>
</svg>
