<svg width="30" height="30" viewBox="0 0 30 30" fill="none" xmlns="http://www.w3.org/2000/svg">
<rect width="30" height="30" rx="5" fill="url(#paint0_linear_4565_673)"/>
<path d="M15.0001 6.87207C13.0213 6.87215 11.1072 7.57633 9.60008 8.85861C8.09299 10.1409 7.09135 11.9176 6.77438 13.8708C6.45741 15.824 6.84579 17.8263 7.87002 19.5194C8.89425 21.2124 10.4875 22.4858 12.3647 23.1116C12.7814 23.1846 12.9376 22.9346 12.9376 22.7158C12.9376 22.5179 12.9272 21.8616 12.9272 21.1637C10.8334 21.5491 10.2918 20.6533 10.1251 20.1846C9.94017 19.7287 9.647 19.3247 9.27094 19.0075C8.97927 18.8512 8.5626 18.4658 9.26051 18.4554C9.527 18.4843 9.78259 18.5771 10.0056 18.7258C10.2287 18.8744 10.4126 19.0747 10.5418 19.3096C10.6557 19.5143 10.809 19.6946 10.9928 19.84C11.1765 19.9854 11.3872 20.0931 11.6126 20.157C11.8381 20.2209 12.0739 20.2396 12.3067 20.2122C12.5394 20.1847 12.7644 20.1116 12.9688 19.9971C13.0049 19.5734 13.1937 19.1773 13.5001 18.8825C11.6459 18.6742 9.70844 17.9554 9.70844 14.7679C9.69673 13.9397 10.0023 13.1384 10.5626 12.5283C10.3078 11.8085 10.3376 11.0186 10.6459 10.32C10.6459 10.32 11.3438 10.1013 12.9376 11.1742C14.3012 10.7992 15.7407 10.7992 17.1043 11.1742C18.698 10.0908 19.3959 10.32 19.3959 10.32C19.7043 11.0186 19.7341 11.8085 19.4793 12.5283C20.0412 13.1374 20.3471 13.9394 20.3334 14.7679C20.3334 17.9658 18.3855 18.6742 16.5314 18.8825C16.7302 19.0841 16.8834 19.3261 16.9805 19.5921C17.0775 19.8581 17.1162 20.1419 17.0939 20.4242C17.0939 21.5388 17.0834 22.4346 17.0834 22.7158C17.0834 22.9346 17.2397 23.195 17.6563 23.1117C19.5302 22.4807 21.1189 21.2044 22.1388 19.5104C23.1587 17.8165 23.5433 15.8153 23.2242 13.8639C22.905 11.9126 21.9027 10.1382 20.3963 8.8575C18.8899 7.57678 16.9774 6.8731 15.0001 6.87207Z" fill="white"/>
<defs>
<linearGradient id="paint0_linear_4565_673" x1="15" y1="0" x2="15" y2="30" gradientUnits="userSpaceOnUse">
<stop stop-color="#12B7F2"/>
<stop offset="1" stop-color="#134FAB"/>
</linearGradient>
</defs>
</svg>
