<svg width="30" height="30" viewBox="0 0 30 30" fill="none" xmlns="http://www.w3.org/2000/svg">
<rect width="30" height="30" rx="5" fill="url(#paint0_linear_4565_665)"/>
<path d="M20.34 8.46C20.1027 8.46 19.8707 8.53038 19.6733 8.66224C19.476 8.79409 19.3222 8.98151 19.2313 9.20078C19.1405 9.42005 19.1168 9.66133 19.1631 9.89411C19.2094 10.1269 19.3236 10.3407 19.4915 10.5085C19.6593 10.6764 19.8731 10.7906 20.1059 10.8369C20.3387 10.8832 20.5799 10.8595 20.7992 10.7687C21.0185 10.6778 21.2059 10.524 21.3378 10.3267C21.4696 10.1293 21.54 9.89734 21.54 9.66C21.54 9.34174 21.4136 9.03652 21.1885 8.81147C20.9635 8.58643 20.6583 8.46 20.34 8.46ZM24.94 10.88C24.9206 10.0503 24.7652 9.2294 24.48 8.45C24.2257 7.78313 23.83 7.17928 23.32 6.68C22.8248 6.16743 22.2196 5.77418 21.55 5.53C20.7727 5.23616 19.9508 5.07721 19.12 5.06C18.06 5 17.72 5 15 5C12.28 5 11.94 5 10.88 5.06C10.0492 5.07721 9.22734 5.23616 8.45 5.53C7.78168 5.77665 7.17693 6.16956 6.68 6.68C6.16743 7.17518 5.77418 7.78044 5.53 8.45C5.23616 9.22734 5.07721 10.0492 5.06 10.88C5 11.94 5 12.28 5 15C5 17.72 5 18.06 5.06 19.12C5.07721 19.9508 5.23616 20.7727 5.53 21.55C5.77418 22.2196 6.16743 22.8248 6.68 23.32C7.17693 23.8304 7.78168 24.2234 8.45 24.47C9.22734 24.7638 10.0492 24.9228 10.88 24.94C11.94 25 12.28 25 15 25C17.72 25 18.06 25 19.12 24.94C19.9508 24.9228 20.7727 24.7638 21.55 24.47C22.2196 24.2258 22.8248 23.8326 23.32 23.32C23.8322 22.8226 24.2283 22.2182 24.48 21.55C24.7652 20.7706 24.9206 19.9497 24.94 19.12C24.94 18.06 25 17.72 25 15C25 12.28 25 11.94 24.94 10.88ZM23.14 19C23.1327 19.6348 23.0178 20.2637 22.8 20.86C22.6403 21.2952 22.3839 21.6884 22.05 22.01C21.7256 22.3405 21.3332 22.5964 20.9 22.76C20.3037 22.9778 19.6748 23.0927 19.04 23.1C18.04 23.15 17.67 23.16 15.04 23.16C12.41 23.16 12.04 23.16 11.04 23.1C10.3809 23.1123 9.72459 23.0109 9.1 22.8C8.68578 22.6281 8.31136 22.3728 8 22.05C7.66809 21.7287 7.41484 21.3352 7.26 20.9C7.01586 20.2952 6.88044 19.6519 6.86 19C6.86 18 6.8 17.63 6.8 15C6.8 12.37 6.8 12 6.86 11C6.86448 10.3511 6.98295 9.70795 7.21 9.1C7.38605 8.67791 7.65627 8.30166 8 8C8.30381 7.65617 8.67929 7.3831 9.1 7.2C9.70955 6.98004 10.352 6.86508 11 6.86C12 6.86 12.37 6.8 15 6.8C17.63 6.8 18 6.8 19 6.86C19.6348 6.86728 20.2637 6.98225 20.86 7.2C21.3144 7.36865 21.7223 7.64285 22.05 8C22.3777 8.30718 22.6338 8.68273 22.8 9.1C23.0223 9.70893 23.1373 10.3518 23.14 11C23.19 12 23.2 12.37 23.2 15C23.2 17.63 23.19 18 23.14 19ZM15 9.87C13.9858 9.87198 12.995 10.1745 12.1527 10.7394C11.3103 11.3043 10.6544 12.1062 10.2676 13.0438C9.88089 13.9813 9.78072 15.0125 9.97979 16.0069C10.1789 17.0014 10.6682 17.9145 11.3861 18.631C12.1039 19.3474 13.018 19.835 14.0129 20.0321C15.0077 20.2293 16.0387 20.1271 16.9755 19.7385C17.9123 19.35 18.7129 18.6924 19.2761 17.849C19.8394 17.0056 20.14 16.0142 20.14 15C20.1413 14.3251 20.0092 13.6566 19.7512 13.033C19.4933 12.4093 19.1146 11.8428 18.6369 11.3661C18.1592 10.8893 17.5919 10.5117 16.9678 10.2549C16.3436 9.99818 15.6749 9.86736 15 9.87ZM15 18.33C14.3414 18.33 13.6976 18.1347 13.15 17.7688C12.6023 17.4029 12.1755 16.8828 11.9235 16.2743C11.6714 15.6659 11.6055 14.9963 11.734 14.3503C11.8625 13.7044 12.1796 13.111 12.6453 12.6453C13.111 12.1796 13.7044 11.8625 14.3503 11.734C14.9963 11.6055 15.6659 11.6714 16.2743 11.9235C16.8828 12.1755 17.4029 12.6023 17.7688 13.15C18.1347 13.6976 18.33 14.3414 18.33 15C18.33 15.4373 18.2439 15.8703 18.0765 16.2743C17.9092 16.6784 17.6639 17.0454 17.3547 17.3547C17.0454 17.6639 16.6784 17.9092 16.2743 18.0765C15.8703 18.2439 15.4373 18.33 15 18.33Z" fill="white"/>
<defs>
<linearGradient id="paint0_linear_4565_665" x1="15" y1="0" x2="15" y2="30" gradientUnits="userSpaceOnUse">
<stop stop-color="#12B7F2"/>
<stop offset="1" stop-color="#134FAB"/>
</linearGradient>
</defs>
</svg>
