<svg width="30" height="30" viewBox="0 0 30 30" fill="none" xmlns="http://www.w3.org/2000/svg">
<rect width="30" height="30" rx="5" fill="url(#paint0_linear_4565_677)"/>
<g clip-path="url(#clip0_4565_677)">
<path d="M10.1083 11.6145V23.28H6.22388V11.6145H10.1083ZM10.3552 8.0131C10.356 8.03398 10.3567 8.05846 10.3567 8.08366C10.3567 8.62294 10.1277 9.10822 9.76196 9.44806L9.76052 9.44878C9.36812 9.80734 8.84324 10.0269 8.26652 10.0269C8.23124 10.0269 8.19524 10.0262 8.15996 10.0248H8.165H8.14124C8.11172 10.0262 8.07716 10.0269 8.0426 10.0269C7.47812 10.0269 6.96548 9.80662 6.5846 9.44806L6.58532 9.44878C6.22244 9.09742 5.9978 8.60638 5.9978 8.06278C5.9978 8.0455 5.9978 8.02822 5.99852 8.01022V8.0131C5.9978 7.99798 5.9978 7.9807 5.9978 7.96342C5.9978 7.41478 6.23108 6.92086 6.60332 6.57454L6.60476 6.57382C6.99644 6.21742 7.51988 5.99854 8.09372 5.99854C8.12684 5.99854 8.15924 5.99926 8.19236 6.0007H8.18804C8.219 5.99926 8.25428 5.99854 8.291 5.99854C8.8562 5.99854 9.371 6.2167 9.75548 6.5731L9.75404 6.57166C10.1248 6.9295 10.3552 7.43062 10.3552 7.98574V8.01598V8.01454V8.0131ZM24.0799 16.5955V23.28H20.2077V17.0412C20.2113 16.9843 20.2128 16.9181 20.2128 16.8518C20.2128 16.2067 20.0335 15.6041 19.7217 15.09L19.7304 15.1051C19.4229 14.676 18.9261 14.4002 18.3652 14.4002C18.322 14.4002 18.2788 14.4017 18.2356 14.4053H18.2414C18.222 14.4045 18.1996 14.4038 18.1773 14.4038C17.7309 14.4038 17.3205 14.5572 16.9958 14.8142L17.0001 14.8113C16.674 15.0756 16.4184 15.4133 16.2571 15.8013L16.2513 15.8179C16.1678 16.0735 16.1203 16.3673 16.1203 16.6725C16.1203 16.7071 16.121 16.7417 16.1224 16.7762V16.7712V23.2814H12.2503C12.2661 20.1504 12.274 17.6117 12.274 15.6653C12.274 13.7189 12.2702 12.5575 12.2625 12.1812L12.251 11.616H16.1232V13.3109H16.0994C16.2535 13.0625 16.4126 12.8472 16.5876 12.6456L16.5818 12.6521C16.7841 12.4296 17.0016 12.2287 17.2356 12.0487L17.2471 12.0401C17.538 11.8161 17.8792 11.6405 18.2493 11.5332L18.2709 11.5281C18.6583 11.4122 19.104 11.3453 19.5648 11.3453H19.6216H19.6188C19.6699 11.3431 19.7296 11.3417 19.7894 11.3417C20.9997 11.3417 22.0898 11.8557 22.8537 12.678L22.8559 12.6809C23.6728 13.5717 24.0813 14.8764 24.0813 16.5948L24.0799 16.5955Z" fill="white"/>
</g>
<defs>
<linearGradient id="paint0_linear_4565_677" x1="15" y1="0" x2="15" y2="30" gradientUnits="userSpaceOnUse">
<stop stop-color="#12B7F2"/>
<stop offset="1" stop-color="#134FAB"/>
</linearGradient>
<clipPath id="clip0_4565_677">
<rect width="18" height="17.28" fill="white" transform="translate(6 6)"/>
</clipPath>
</defs>
</svg>
