<svg width="30" height="30" viewBox="0 0 30 30" fill="none" xmlns="http://www.w3.org/2000/svg">
<rect width="30" height="30" rx="5" fill="url(#paint0_linear_4565_681)"/>
<path d="M19.1139 12.2908C19.6659 11.7388 20.2139 10.4508 17.9139 12.0148C15.7654 13.4935 13.6023 14.9509 11.4249 16.3868C11.0934 16.5367 10.7349 16.6181 10.3711 16.626C10.0073 16.6339 9.64568 16.5682 9.30792 16.4328C7.92792 16.0188 6.31692 15.4668 6.31692 15.4668C6.31692 15.4668 5.21692 14.7758 7.09992 14.0398C7.09992 14.0398 15.0609 10.7728 17.8219 9.62179C18.8799 9.16179 22.4689 7.68979 22.4689 7.68979C22.4689 7.68979 24.1259 7.04479 23.9879 8.60979C23.9419 9.25379 23.5739 11.5098 23.2059 13.9478C22.6529 17.3988 22.0549 21.1728 22.0549 21.1728C22.0549 21.1728 21.9629 22.2308 21.1809 22.4148C20.3438 22.4006 19.535 22.1094 18.8809 21.5868C18.6969 21.4488 15.4299 19.3778 14.2329 18.3658C14.1112 18.2833 14.0122 18.1714 13.9454 18.0404C13.8785 17.9094 13.8458 17.7636 13.8504 17.6166C13.855 17.4696 13.8967 17.3262 13.9716 17.1996C14.0465 17.0731 14.1522 16.9675 14.2789 16.8928C15.9207 15.3907 17.5326 13.8564 19.1139 12.2908Z" fill="white"/>
<defs>
<linearGradient id="paint0_linear_4565_681" x1="15" y1="0" x2="15" y2="30" gradientUnits="userSpaceOnUse">
<stop stop-color="#12B7F2"/>
<stop offset="1" stop-color="#134FAB"/>
</linearGradient>
</defs>
</svg>
