<svg width="193" height="51" viewBox="0 0 193 51" fill="none" xmlns="http://www.w3.org/2000/svg">
<path d="M79.7032 20.0238C79.189 17.9668 77.8712 16.4883 75.2678 16.4883C71.4431 16.4883 69.8682 19.8631 69.8682 23.27C69.8682 26.6769 71.4752 30.0516 75.2678 30.0516C78.0319 30.0516 79.5425 27.9946 79.7996 25.3912H82.853C82.5959 29.6659 79.5746 32.5907 75.2678 32.5907C69.9325 32.5907 66.7506 28.3482 66.7506 23.27C66.7506 18.1918 69.9325 13.9492 75.2678 13.9492C79.2854 13.9814 82.4352 16.1991 82.8208 20.0238H79.7032ZM84.7171 25.7127C84.7171 21.7594 87.0955 18.931 91.2095 18.931C95.3235 18.931 97.7019 21.7594 97.7019 25.7127C97.7019 29.6659 95.3235 32.5265 91.2095 32.5265C87.0955 32.5265 84.7171 29.6659 84.7171 25.7127ZM94.8735 25.7127C94.8735 23.495 93.7486 21.1808 91.2095 21.1808C88.6704 21.1808 87.5455 23.495 87.5455 25.7127C87.5455 27.9304 88.6704 30.2766 91.2095 30.2766C93.7486 30.2766 94.8735 27.9625 94.8735 25.7127ZM100.145 14.3671H102.973V17.0669H100.145V14.3671ZM100.145 19.2845H102.973V32.1729H100.145V19.2845ZM106.091 19.2845H108.79V21.1808L108.855 21.2451C109.69 19.8309 111.201 18.931 112.872 18.9631C115.668 18.9631 117.436 20.4738 117.436 23.3343V32.1729H114.608V24.0735C114.544 22.0486 113.772 21.1808 112.101 21.1808C110.205 21.1808 108.983 22.6593 108.983 24.5556V32.1729H106.155V19.2845H106.091ZM136.335 32.1729H134.342L133.86 30.0838C132.189 31.9801 130.678 32.5907 128.493 32.5907C123.157 32.5907 119.975 28.3482 119.975 23.27C119.975 18.1918 123.157 13.9492 128.493 13.9492C132.382 13.9492 135.66 16.0062 136.11 20.0238H133.056C132.767 17.6775 130.71 16.4883 128.46 16.4883C124.636 16.4883 123.061 19.8631 123.061 23.27C123.061 26.6769 124.668 30.0516 128.46 30.0516C131.642 30.1159 133.41 28.1875 133.442 25.1663H128.718V22.7879H136.303L136.335 32.1729ZM141.542 26.4519C141.542 28.4767 142.634 30.2766 145.013 30.2766C146.652 30.2766 147.648 29.5695 148.163 28.1232H150.862C150.252 30.9516 147.841 32.5265 145.013 32.5265C140.963 32.5265 138.713 29.6981 138.713 25.7448C138.713 22.0808 141.124 18.931 144.948 18.931C148.998 18.931 151.505 22.595 151.023 26.4519H141.542ZM148.163 24.5877C148.066 22.7879 146.845 21.1808 144.916 21.1808C142.956 21.1808 141.606 22.6593 141.509 24.5877H148.163ZM161.887 23.5914C161.662 22.0165 160.504 21.1808 158.93 21.1808C157.451 21.1808 155.394 21.9522 155.394 25.8734C155.394 28.0268 156.326 30.2766 158.801 30.2766C160.44 30.2766 161.597 29.1838 161.854 27.3197H164.683C164.169 30.6623 162.112 32.4943 158.769 32.4943C154.719 32.4943 152.502 29.6338 152.502 25.8412C152.502 21.9522 154.623 18.8989 158.865 18.8989C161.854 18.8989 164.393 20.4095 164.683 23.5592H161.887V23.5914ZM167.125 14.3671H169.954V24.4913L175.096 19.2845H178.6L173.65 24.0092L179.05 32.1729H175.578L171.625 25.9055L169.922 27.5447V32.1729H167.093V14.3671H167.125ZM179.821 25.7127C179.821 21.7594 182.199 18.931 186.313 18.931C190.459 18.931 192.806 21.7594 192.806 25.7127C192.806 29.6659 190.427 32.5265 186.313 32.5265C182.199 32.5265 179.821 29.6659 179.821 25.7127ZM190.009 25.7127C190.009 23.495 188.885 21.1808 186.345 21.1808C183.806 21.1808 182.681 23.495 182.681 25.7127C182.681 27.9304 183.806 30.2766 186.345 30.2766C188.885 30.2766 190.009 27.9625 190.009 25.7127Z" fill="white"/>
<path d="M50.9696 25.3911C51.0017 35.7082 44.8629 45.0289 35.3493 49.0144C25.8357 52.9998 14.8758 50.8785 7.54773 43.6148C0.219695 36.351 -1.998 25.3911 1.891 15.8454C5.78 6.29962 15.0686 0.0643492 25.3536 6.81187e-05C39.4633 -0.0320724 50.9053 11.3135 50.9696 25.3911Z" fill="#8DC63F"/>
<path d="M49.0733 25.3907C49.1054 34.9364 43.4165 43.5501 34.61 47.2463C25.8035 50.9424 15.6793 48.9497 8.89763 42.2645C2.11598 35.5471 0.0589826 25.4228 3.65872 16.6163C7.25846 7.77769 15.84 2.02454 25.3536 1.96026C38.4026 1.89597 49.009 12.3738 49.0733 25.3907Z" fill="#F9E988"/>
<path d="M25.9321 3.47116C27.4427 3.21404 28.9533 3.21404 30.4639 3.47116C31.9745 3.69615 33.453 4.2104 34.8029 4.91749C36.1528 5.65672 37.3098 6.65308 38.4669 7.58515C39.6239 8.51723 40.781 9.48145 41.8738 10.5421C42.9987 11.5706 43.9629 12.7598 44.7664 14.0454C45.6021 15.331 46.277 16.7131 46.7913 18.1272C47.7876 21.0199 48.109 24.1375 47.6269 27.0945H47.4662C46.9841 24.1375 46.3092 21.3413 45.2485 18.6736C44.7664 17.3237 44.1557 16.006 43.5129 14.7525C42.8058 13.499 42.0666 12.2455 41.231 11.0885C40.3953 9.89927 39.3347 8.83864 38.1455 7.97084C36.9563 7.10305 35.5742 6.55666 34.2565 6.04241C32.9387 5.52816 31.5888 4.98177 30.2068 4.56394C28.8247 4.17826 27.4105 3.85685 25.9321 3.56759V3.47116Z" fill="white"/>
<path d="M37.4384 17.0665C35.735 16.5844 33.9672 15.8773 32.1674 15.1702C32.0709 14.7202 31.6531 14.1738 30.8496 13.4667C29.6925 12.4382 27.4748 12.4704 25.5786 12.9203C23.4894 12.4382 21.4003 12.2454 19.4076 12.7275C3.11233 17.2272 12.3367 28.1549 6.35852 39.1791C7.19417 40.979 16.3864 51.5211 29.6604 48.6927C29.6604 48.6927 25.1286 37.7971 35.3814 32.5582C43.7058 28.3157 49.6839 20.4091 37.4384 17.0665Z" fill="#8BC53F"/>
<path d="M25.5786 12.92C26.7678 13.0164 31.0746 14.3984 32.1674 15.1698C31.2353 12.5022 28.1498 12.1486 25.5786 12.92Z" fill="#009345"/>
<path d="M39.4633 24.2334C39.4633 25.1012 38.4026 25.5511 37.792 24.9405C37.1813 24.3298 37.5991 23.2692 38.4669 23.237C39.0133 23.2692 39.4633 23.687 39.4633 24.2334ZM26.7035 19.7016C26.7035 21.5336 25.5786 23.2049 23.8751 23.912C22.1717 24.6191 20.2111 24.2334 18.8933 22.9156C17.5756 21.5979 17.1899 19.6373 17.897 17.9338C18.6041 16.2304 20.2754 15.1055 22.1074 15.1055C23.3287 15.1055 24.4858 15.5876 25.3214 16.4232C26.2214 17.3232 26.7035 18.4802 26.7035 19.7016Z" fill="white"/>
<path d="M25.3536 19.7335C25.3536 21.0191 24.5822 22.2083 23.3609 22.6904C22.1717 23.1725 20.7896 22.9154 19.8575 21.9833C18.9255 21.0513 18.6683 19.7014 19.1504 18.48C19.6326 17.2908 20.8218 16.4873 22.1074 16.4873C23.9072 16.5194 25.3536 17.9658 25.3536 19.7335Z" fill="#58595B"/>
<path d="M43.1594 26.2593C39.4633 28.8627 35.2529 30.8233 29.3069 30.8233C26.5106 30.8233 25.9643 27.8663 24.1001 29.3127C23.1359 30.0519 19.7933 31.7232 17.1256 31.6268C14.4579 31.4982 10.1511 29.9233 8.96192 24.2666C8.47981 29.9555 8.25482 34.1337 6.10141 38.9227C10.344 45.7365 20.4682 50.9754 29.6604 48.7255C28.6641 41.8153 34.7065 35.0658 38.0812 31.6268C39.399 30.2769 41.8738 28.1556 43.1594 26.2593Z" fill="#8BC53F"/>
<path d="M42.9987 26.4199C41.8417 27.4806 40.4917 28.2519 39.1097 28.9269C37.6955 29.6018 36.2492 30.1161 34.7386 30.5339C33.228 30.9196 31.6531 31.2089 30.0782 31.0803C28.4712 30.9517 26.8642 30.4053 25.8035 29.2161L25.8678 29.1519C27.1534 29.9875 28.664 30.2768 30.1425 30.3411C31.6531 30.3732 33.1637 30.2768 34.6422 29.9875C36.1206 29.6661 37.5991 29.2161 39.0133 28.6376C40.4275 28.0591 41.8095 27.3841 43.0309 26.4199H42.9987Z" fill="#58595B"/>
</svg>
