<svg width="294" height="51" viewBox="0 0 294 51" fill="none" xmlns="http://www.w3.org/2000/svg">
<path d="M43.3088 30.4913C42.4269 31.0349 41.3981 31.1337 40.6142 30.689C39.6344 30.0959 39.0465 28.7616 39.0465 26.9331V21.3488C39.0465 18.6802 38.0177 16.7529 36.254 16.2587C33.2655 15.3692 31.0118 19.0756 30.179 20.4593L24.8879 29.0087V18.4826C24.8389 16.061 24.055 14.6279 22.5852 14.1831C21.6054 13.8866 20.1356 14.0349 18.7149 16.2093L6.90785 35.2849C5.34011 32.2703 4.50725 28.9099 4.50725 25.5C4.50725 13.9855 13.6687 4.64535 24.8879 4.64535C36.107 4.64535 45.2685 13.9855 45.2685 25.5V25.5494V25.5988C45.3664 27.8227 44.6806 29.6017 43.3088 30.4913ZM49.7757 25.5V25.4506V25.4012C49.7267 11.4157 38.5566 0 24.8879 0C11.1701 0 0 11.4157 0 25.5C0 39.5349 11.1701 51 24.8879 51C31.2078 51 37.1848 48.5785 41.79 44.1802C42.7209 43.2907 42.7699 41.8576 41.888 40.9186C41.0552 39.9797 39.6344 39.9302 38.7036 40.7703C38.7036 40.7703 38.7035 40.7703 38.6546 40.8198C34.9312 44.3779 29.934 46.4041 24.7899 46.4041C18.7639 46.4041 13.3748 43.7355 9.65139 39.4855L20.2826 22.2878V30.2442C20.2826 34.0494 21.7524 35.2849 22.9772 35.6308C24.202 35.9767 26.0637 35.7297 28.0723 32.5174L33.9024 22.9796C34.0983 22.6831 34.2453 22.3866 34.4413 22.1889V27.032C34.4413 30.5901 35.862 33.4564 38.3116 34.8401C40.5162 36.125 43.3088 35.9767 45.6114 34.5436C48.4529 32.6657 49.9717 29.4041 49.7757 25.5ZM84.4619 16.8023C85.0498 17.1483 85.5887 17.9884 85.5887 18.7296C85.5887 19.9157 84.6089 20.9041 83.4821 20.9041C83.1881 20.9041 82.9432 20.8052 82.6982 20.7558C81.3754 19.7674 79.7097 19.125 77.946 19.125C73.7817 19.125 70.9402 22.5349 70.9402 26.7849C70.9402 31.0349 73.8307 34.3953 77.946 34.3953C80.0037 34.3953 81.8654 33.5552 83.2371 32.2209C83.5801 31.9738 84.021 31.8256 84.4619 31.8256C85.5887 31.8256 86.4706 32.7151 86.4706 33.8517C86.4706 34.593 86.0297 35.2355 85.4908 35.5814C83.4821 37.311 80.7875 38.4477 77.995 38.4477C71.6261 38.4477 66.4329 33.1599 66.4329 26.6366C66.4329 20.1134 71.6261 14.8256 77.995 14.8256C80.3466 14.7762 82.6002 15.5174 84.4619 16.8023ZM96.122 21.7442C100.482 21.7442 104.108 25.4506 104.108 30.0465C104.108 34.593 100.433 38.4971 96.122 38.4971C91.5657 38.4971 87.7934 34.6424 87.7934 30.0465C87.7934 25.4506 91.5657 21.7442 96.122 21.7442ZM96.073 34.3953C97.9837 34.3953 99.6004 32.5669 99.6004 30.0959C99.6004 27.625 97.9837 26.0436 96.073 26.0436C94.0153 26.0436 92.3006 27.5756 92.3006 30.0959C92.3006 32.5174 94.0153 34.3953 96.073 34.3953ZM106.851 35.9273V24.2645C106.851 22.9797 107.831 21.9419 109.105 21.9419C110.33 21.9419 111.358 22.9797 111.358 24.2645V35.9273C111.358 37.2122 110.33 38.25 109.105 38.25C107.88 38.25 106.851 37.1628 106.851 35.9273ZM106.508 17.5436C106.508 16.0116 107.684 14.8256 109.105 14.8256C110.575 14.8256 111.75 16.061 111.75 17.5436C111.75 19.0262 110.575 20.2122 109.105 20.2122C107.635 20.1628 106.508 18.9767 106.508 17.5436ZM119.981 29.6017V35.9273C119.981 37.2122 118.952 38.25 117.727 38.25C116.503 38.25 115.474 37.2122 115.474 35.9273V23.7209C115.474 22.7326 116.258 21.9419 117.237 21.9419C118.217 21.9419 118.952 22.782 118.952 23.7209C120.765 21.9913 122.382 21.7442 123.9 21.7442C128.408 21.7442 130.416 25.1541 130.416 29.0581V35.9273C130.416 37.2122 129.387 38.25 128.163 38.25C126.938 38.25 125.909 37.2122 125.909 35.9273V29.6017C125.909 27.625 125.664 25.9448 122.823 25.9448C120.814 25.9448 119.981 27.625 119.981 29.6017ZM145.016 32.0233C144.477 32.0233 144.134 31.7762 143.84 31.4302L138.598 25.6977V35.9273C138.598 37.2122 137.569 38.25 136.344 38.25C135.119 38.25 134.091 37.2122 134.091 35.9273V15.6657C134.238 15.3198 134.581 15.0727 134.924 15.0727C135.315 15.0727 135.658 15.4186 135.903 15.6657L144.281 25.1541C144.526 25.4506 144.82 25.5988 145.016 25.5988C145.163 25.5988 145.506 25.4506 145.751 25.1541L154.128 15.6657C154.373 15.4186 154.667 15.0727 155.108 15.0727C155.5 15.0727 155.843 15.3198 155.941 15.6657V35.9273C155.941 37.2122 154.961 38.25 153.687 38.25C152.463 38.25 151.434 37.2122 151.434 35.9273V25.6977L146.192 31.4302C145.8 31.7762 145.457 32.0233 145.016 32.0233ZM166.67 34.3953C168.679 34.3953 170.394 32.5669 170.394 30.0959C170.394 27.625 168.63 25.9942 166.67 25.9942C164.711 25.9942 163.094 27.6744 163.094 30.0959C163.094 32.468 164.662 34.3953 166.67 34.3953ZM171.471 36.4709L171.373 35.9273C170.492 37.657 167.699 38.4477 165.935 38.4477C161.722 38.4477 158.587 34.593 158.587 29.9971C158.587 25.4506 161.771 21.6948 166.18 21.6948C166.915 21.6948 169.463 21.8924 171.422 24.2151L171.52 23.6715C171.52 22.6831 172.255 21.8924 173.235 21.8924C174.215 21.8924 174.999 22.7326 174.999 23.6715V36.4215C174.999 37.4099 174.215 38.2006 173.235 38.2006C172.206 38.25 171.471 37.4099 171.471 36.4709ZM187.394 25.9448H186.904C184.062 26.093 183.523 27.7238 183.523 29.6017V35.9273C183.523 37.2122 182.495 38.25 181.27 38.25C180.045 38.25 179.016 37.2122 179.016 35.9273V23.7209C179.016 22.7326 179.8 21.9419 180.78 21.9419C181.76 21.9419 182.495 22.782 182.495 23.7209C184.16 22.1395 185.532 21.7936 186.904 21.7442H187.345C188.423 21.7442 189.402 22.6831 189.402 23.8692C189.451 24.9564 188.472 25.9448 187.394 25.9448ZM204.786 34.8401C204.982 35.186 205.129 35.532 205.129 35.9273C205.129 37.1134 204.051 38.2006 202.875 38.2006C202.091 38.2006 201.405 37.6076 200.867 36.9157L195.673 30.8372V35.8779C195.673 37.1628 194.645 38.2006 193.42 38.2006C192.195 38.2006 191.166 37.1628 191.166 35.8779V17.3459C191.166 16.061 192.146 15.0233 193.42 15.0233C194.694 15.0233 195.673 16.061 195.673 17.3459V28.9099L200.867 23.1279C201.405 22.5349 202.042 21.8924 202.826 21.8924C203.953 21.8924 204.982 22.9302 204.982 24.1163C204.982 24.4622 204.884 24.8576 204.688 25.1541L200.573 29.7006L204.786 34.8401ZM213.604 25.9942C212.38 25.9942 210.371 26.6366 210.371 28.564H216.887C216.838 26.6366 214.78 25.9942 213.604 25.9942ZM219.483 31.4797H210.371C210.371 34.1977 212.968 34.6424 214.094 34.6424C214.927 34.6424 216.103 34.4942 217.034 34.0494C217.328 33.8517 217.769 33.7035 218.21 33.7035C219.189 33.7035 220.022 34.5436 220.022 35.5814C220.022 36.2733 219.581 36.8663 219.042 37.2122C217.671 38.25 215.858 38.4971 214.143 38.4971C209.587 38.4971 205.815 36.0262 205.815 30.2442C205.815 25.6977 208.117 21.7442 213.506 21.7442C217.867 21.7442 221.149 24.6105 221.247 29.7006C221.247 30.6395 220.463 31.4797 219.483 31.4797ZM232.025 38.4477H230.801C227.371 38.4477 225.362 36.9157 225.362 31.5291V25.9448H224.187C223.109 25.9448 222.178 24.9564 222.178 23.8692C222.178 22.6831 223.158 21.7442 224.187 21.7442H225.362V17.4448C225.362 16.1599 226.342 15.1221 227.616 15.1221C228.841 15.1221 229.87 16.1599 229.87 17.4448V21.7442H231.731C232.809 21.7442 233.74 22.6831 233.74 23.8692C233.74 24.9564 232.76 25.9448 231.731 25.9448H229.87V30.6395C229.87 33.7529 230.017 34.3953 231.388 34.3953H232.025C233.103 34.3953 234.034 35.2849 234.034 36.4215C234.034 37.5087 233.103 38.4477 232.025 38.4477ZM253.827 16.8023C254.415 17.1483 254.954 17.9884 254.954 18.7296C254.954 19.9157 253.974 20.9041 252.847 20.9041C252.553 20.9041 252.308 20.8052 252.063 20.7558C250.74 19.7674 249.074 19.125 247.311 19.125C243.146 19.125 240.305 22.5349 240.305 26.7849C240.305 31.0349 243.195 34.3953 247.311 34.3953C249.368 34.3953 251.23 33.5552 252.602 32.2209C252.945 31.9738 253.386 31.8256 253.827 31.8256C254.954 31.8256 255.835 32.7151 255.835 33.8517C255.835 34.593 255.394 35.2355 254.856 35.5814C252.847 37.311 250.152 38.4477 247.36 38.4477C240.991 38.4477 235.798 33.1599 235.798 26.6366C235.798 20.1134 240.991 14.8256 247.36 14.8256C249.711 14.7762 252.014 15.5174 253.827 16.8023ZM265.242 34.3953C267.25 34.3953 268.965 32.5669 268.965 30.0959C268.965 27.625 267.201 25.9942 265.242 25.9942C263.233 25.9942 261.665 27.6744 261.665 30.0959C261.665 32.468 263.282 34.3953 265.242 34.3953ZM270.043 36.4709L269.945 35.9273C269.063 37.657 266.271 38.4477 264.507 38.4477C260.294 38.4477 257.158 34.593 257.158 29.9971C257.158 25.4506 260.343 21.6948 264.752 21.6948C265.487 21.6948 268.034 21.8924 269.994 24.2151L270.092 23.6715C270.092 22.6831 270.827 21.8924 271.807 21.8924C272.787 21.8924 273.57 22.7326 273.57 23.6715V36.4215C273.57 37.4099 272.787 38.2006 271.807 38.2006C270.778 38.25 270.043 37.4099 270.043 36.4709ZM285.867 34.3953C287.876 34.3953 289.444 32.468 289.444 30.0959C289.444 27.625 287.827 25.9942 285.867 25.9942C283.859 25.9942 282.144 27.625 282.144 30.0959C282.144 32.5669 283.859 34.3953 285.867 34.3953ZM282.144 37.1134V42.8954C282.144 44.1802 281.115 45.218 279.89 45.218C278.666 45.218 277.637 44.1802 277.637 42.8954V23.7209C277.637 22.7326 278.421 21.9419 279.4 21.9419C280.38 21.9419 281.115 22.782 281.115 23.9186C282.781 22.1889 284.839 21.7442 286.406 21.7442C290.767 21.7442 294 25.4506 294 30.0465C294 34.593 290.914 38.4971 286.651 38.4971C285.328 38.4477 283.369 38.0523 282.144 37.1134Z" fill="white"/>
</svg>
