<svg width="266" height="51" viewBox="0 0 266 51" fill="none" xmlns="http://www.w3.org/2000/svg">
<path d="M22.2787 0L0.187561 12.75V38.25L22.2787 51L44.3698 38.25V12.75L22.2787 0ZM22.2787 0L0.187561 12.75V38.25L22.2787 51L44.3698 38.25V12.75L22.2787 0Z" fill="white"/>
<path d="M31.0001 41.0391H27.8568L24.0938 37.5859V35.8151L27.9896 32.0964V26.2083L33.0808 22.888L38.8803 27.2708L31.0001 41.0391ZM17.9844 31.7422L18.56 26.2083L16.6563 21.25H27.9011L26.0417 26.2083L26.573 31.7422H22.2344H17.9844ZM20.5521 37.5859L16.7891 41.0833H13.6016L5.67714 27.2708L11.5209 22.9323L16.6563 26.2083V32.0964L20.5521 35.8151V37.5859ZM13.5574 11.0234H30.9558L33.0365 19.8776H11.5209L13.5574 11.0234ZM22.2787 0L0.187561 12.75V38.25L22.2787 51L44.3698 38.25V12.75L22.2787 0Z" fill="#03316C"/>
<path d="M69.1615 37.3197C63.3177 37.3197 59.0235 32.7598 59.0235 27.1374C59.0235 21.515 63.362 16.8223 69.2058 16.8223C72.9245 16.8223 75.2266 18.1947 77.0417 20.1869L74.2526 23.1973C72.8802 21.7363 71.4193 20.7624 69.1615 20.7624C65.8854 20.7624 63.4948 23.5957 63.4948 27.0488C63.4948 30.5905 65.9297 33.4238 69.3828 33.4238C71.5078 33.4238 73.0573 32.4056 74.474 30.9889L77.1745 33.6895C75.2266 35.7702 72.9688 37.3197 69.1615 37.3197Z" fill="white"/>
<path d="M85.7188 37.3203H81.2032V16.8672H85.7188V21.6484C86.9584 18.7265 89.2162 16.6901 92.6693 16.8672V21.6484H92.4037C88.4636 21.6484 85.7188 24.2161 85.7188 29.4401V37.3203Z" fill="white"/>
<path d="M116.266 16.7783L106.305 42.8096H101.745L103.914 37.32L95.3698 16.7783H100.195L105.995 31.9632L111.573 16.7783H116.266Z" fill="white"/>
<path d="M129.547 20.7184C126.492 20.7184 123.836 23.1976 123.836 27.0491C123.836 30.9007 126.536 33.3799 129.547 33.3799C132.646 33.3799 135.169 30.945 135.169 27.0491C135.169 23.1533 132.602 20.7184 129.547 20.7184ZM130.565 37.2757C127.333 37.2757 125.297 35.6377 123.925 33.8226V42.8096H119.409V16.7783H123.925V20.4528C125.385 18.4163 127.422 16.7783 130.565 16.7783C135.214 16.7783 139.729 20.4528 139.729 27.0049C139.729 33.557 135.258 37.2757 130.565 37.2757Z" fill="white"/>
<path d="M149.602 21.0729V30.724C149.602 32.4505 150.487 33.1589 152.037 33.1589H153.807V37.1875H150.708C147.432 37.1875 145.086 35.7266 145.086 31.4323V21.0729H142.607V17.2214H145.086V11.8203H149.602V17.2214H153.807V21.0729H149.602Z" fill="white"/>
<path d="M168.018 20.7181C164.388 20.7181 162.086 23.5514 162.086 27.0046C162.086 30.502 164.565 33.3796 168.063 33.3796C171.693 33.3796 173.995 30.5462 173.995 27.0931C174.083 23.5957 171.56 20.7181 168.018 20.7181ZM168.018 37.3197C162.042 37.3197 157.615 32.7598 157.615 27.1374C157.615 21.4707 162.086 16.8223 168.107 16.8223C174.128 16.8223 178.555 21.3822 178.555 27.0488C178.555 32.627 174.128 37.3197 168.018 37.3197Z" fill="white"/>
<path d="M221.63 20.7181C218 20.7181 215.698 23.5514 215.698 27.0046C215.698 30.502 218.177 33.3796 221.674 33.3796C225.305 33.3796 227.607 30.5462 227.607 27.0931C227.651 23.5957 225.172 20.7181 221.63 20.7181ZM221.63 37.3197C215.654 37.3197 211.227 32.7598 211.227 27.1374C211.227 21.4707 215.698 16.8223 221.719 16.8223C227.74 16.8223 232.167 21.3822 232.167 27.0488C232.167 32.627 227.695 37.3197 221.63 37.3197Z" fill="white"/>
<path d="M258.906 16.7783C263.201 16.7783 265.813 19.4788 265.813 24.3044V37.2757H261.297V25.6767C261.297 22.5335 259.836 20.8955 257.313 20.8955C254.878 20.8955 253.107 22.6221 253.107 25.7653V37.32H248.591V25.6767C248.591 22.6221 247.086 20.8955 244.607 20.8955C242.128 20.8955 240.401 22.7549 240.401 25.8096V37.32H235.885V16.8226H240.401V20.1872C241.685 18.4606 243.367 16.8226 246.378 16.8226C249.211 16.8226 251.159 18.195 252.221 20.2757C253.859 18.1507 255.94 16.7783 258.906 16.7783Z" fill="white"/>
<path d="M186.833 33.1592V35.4613L186.701 35.6826L184.708 36.7894H184.443L182.495 35.6826L182.362 35.4613V33.1592L182.495 32.9378L184.443 31.8311H184.708L186.701 32.9378L186.833 33.1592Z" fill="white"/>
<path d="M200.513 37.2756C194.669 37.1428 190.464 32.4943 190.552 26.8719C190.641 21.2495 195.068 16.6454 200.956 16.7782C204.675 16.8667 206.977 18.2834 208.747 20.3199L205.914 23.286C204.586 21.8251 203.125 20.7626 200.867 20.7183C197.591 20.674 195.156 23.4188 195.112 26.9162C195.024 30.4579 197.414 33.3355 200.867 33.3798C202.992 33.424 204.586 32.4501 206.003 31.0334L208.659 33.7782C206.667 35.8589 204.365 37.3641 200.513 37.2756Z" fill="white"/>
</svg>
