<svg width="507" height="135" viewBox="0 0 507 135" fill="none" xmlns="http://www.w3.org/2000/svg">
<path d="M209.587 52.6536C208.235 47.2445 204.769 43.3567 197.924 43.3567C187.866 43.3567 183.725 52.231 183.725 61.1897C183.725 70.1484 187.951 79.0227 197.924 79.0227C205.192 79.0227 209.164 73.6136 209.84 66.7678H217.869C217.193 78.0085 209.249 85.6994 197.924 85.6994C183.894 85.6994 175.527 74.5433 175.527 61.1897C175.527 47.8361 183.894 36.6799 197.924 36.6799C208.488 36.7644 216.771 42.5961 217.785 52.6536H209.587ZM222.771 67.6129C222.771 57.2174 229.026 49.78 239.844 49.78C250.662 49.78 256.916 57.2174 256.916 67.6129C256.916 78.0085 250.662 85.5304 239.844 85.5304C229.026 85.5304 222.771 78.0085 222.771 67.6129ZM249.479 67.6129C249.479 61.7813 246.52 55.6961 239.844 55.6961C233.167 55.6961 230.209 61.7813 230.209 67.6129C230.209 73.4446 233.167 79.6143 239.844 79.6143C246.52 79.6143 249.479 73.5291 249.479 67.6129ZM263.339 37.7787H270.777V44.878H263.339V37.7787ZM263.339 50.7097H270.777V84.6007H263.339V50.7097ZM278.975 50.7097H286.074V55.6961L286.243 55.8652C288.441 52.1464 292.413 49.78 296.808 49.8645C304.161 49.8645 308.809 53.8368 308.809 61.3587V84.6007H301.372V63.3026C301.203 57.9781 299.174 55.6961 294.779 55.6961C289.793 55.6961 286.581 59.5839 286.581 64.5703V84.6007H279.144V50.7097H278.975ZM358.505 84.6007H353.265L351.997 79.1072C347.602 84.0936 343.63 85.6994 337.883 85.6994C323.853 85.6994 315.486 74.5433 315.486 61.1897C315.486 47.8361 323.853 36.6799 337.883 36.6799C348.109 36.6799 356.73 42.089 357.913 52.6536H349.884C349.123 46.4839 343.714 43.3567 337.798 43.3567C327.741 43.3567 323.599 52.231 323.599 61.1897C323.599 70.1484 327.825 79.0227 337.798 79.0227C346.165 79.1917 350.814 74.1207 350.898 66.1762H338.474V59.9219H358.42L358.505 84.6007ZM372.196 69.5568C372.196 74.8814 375.07 79.6143 381.324 79.6143C385.634 79.6143 388.254 77.7549 389.607 73.9517H396.706C395.1 81.3891 388.762 85.5304 381.324 85.5304C370.675 85.5304 364.759 78.093 364.759 67.6975C364.759 58.0626 371.098 49.78 381.155 49.78C391.804 49.78 398.396 59.4149 397.129 69.5568H372.196ZM389.607 64.6549C389.353 59.9219 386.142 55.6961 381.071 55.6961C375.915 55.6961 372.365 59.5839 372.112 64.6549H389.607ZM425.695 62.0349C425.104 57.8935 422.061 55.6961 417.92 55.6961C414.032 55.6961 408.623 57.7245 408.623 68.0355C408.623 73.6981 411.074 79.6143 417.582 79.6143C421.892 79.6143 424.935 76.7407 425.611 71.8388H433.048C431.696 80.6285 426.287 85.4459 417.497 85.4459C406.848 85.4459 401.016 77.9239 401.016 67.951C401.016 57.7245 406.595 49.6955 417.751 49.6955C425.611 49.6955 432.288 53.6677 433.048 61.9504H425.695V62.0349ZM439.471 37.7787H446.909V64.4013L460.431 50.7097H469.644L456.628 63.1336L470.827 84.6007H461.699L451.304 68.12L446.824 72.4304V84.6007H439.387V37.7787H439.471ZM472.855 67.6129C472.855 57.2174 479.11 49.78 489.928 49.78C500.83 49.78 507 57.2174 507 67.6129C507 78.0085 500.746 85.5304 489.928 85.5304C479.11 85.5304 472.855 78.0085 472.855 67.6129ZM499.647 67.6129C499.647 61.7813 496.689 55.6961 490.012 55.6961C483.335 55.6961 480.377 61.7813 480.377 67.6129C480.377 73.4446 483.335 79.6143 490.012 79.6143C496.689 79.6143 499.647 73.5291 499.647 67.6129Z" fill="white"/>
<path d="M134.029 66.7681C134.114 93.8979 117.971 118.408 92.9541 128.888C67.9373 139.368 39.1172 133.79 19.8474 114.689C0.577707 95.5882 -5.25393 66.7682 4.97256 41.6668C15.199 16.5654 39.6243 0.169212 66.6695 0.000179124C103.772 -0.0843373 133.86 29.75 134.029 66.7681Z" fill="#8DC63F"/>
<path d="M129.043 66.768C129.127 91.8694 114.168 114.52 91.0102 124.239C67.8528 133.959 41.2301 128.719 23.3971 111.139C5.56417 93.4752 0.155114 66.8525 9.62095 43.695C19.0868 20.453 41.6527 5.32459 66.6695 5.15556C100.983 4.98653 128.874 32.5389 129.043 66.768Z" fill="#F9E988"/>
<path d="M68.1908 9.12795C72.1631 8.45182 76.1353 8.45182 80.1076 9.12795C84.0799 9.71956 87.9676 11.0718 91.5173 12.9312C95.067 14.8751 98.1096 17.4951 101.152 19.9461C104.195 22.397 107.237 24.9325 110.111 27.7216C113.069 30.4261 115.604 33.5532 117.717 36.9339C119.915 40.3145 121.69 43.9487 123.042 47.6674C125.662 55.2739 126.507 63.472 125.239 71.2475H124.817C123.549 63.472 121.774 56.1191 118.985 49.1042C117.717 45.5545 116.112 42.0893 114.421 38.7932C112.562 35.4971 110.618 32.2009 108.421 29.1583C106.223 26.0312 103.434 23.2422 100.307 20.9603C97.1799 18.6783 93.5457 17.2415 90.0805 15.8893C86.6154 14.537 83.0657 13.1002 79.4315 12.0015C75.7973 10.9873 72.0786 10.1421 68.1908 9.3815V9.12795Z" fill="white"/>
<path d="M98.4477 44.8784C93.9683 43.6107 89.3199 41.7513 84.587 39.892C84.3335 38.7087 83.2347 37.2719 81.1218 35.4126C78.0792 32.7081 72.2476 32.7926 67.2612 33.9758C61.7676 32.7081 56.274 32.201 51.034 33.4687C8.18418 45.301 32.4404 74.0366 16.7203 103.026C18.9178 107.759 43.0895 135.48 77.9947 128.043C77.9947 128.043 66.0779 99.3915 93.0387 85.6153C114.928 74.4592 130.648 53.6681 98.4477 44.8784Z" fill="#8BC53F"/>
<path d="M67.2611 33.9758C70.3882 34.2293 81.7134 37.8635 84.587 39.8919C82.136 32.8771 74.0224 31.9474 67.2611 33.9758Z" fill="#009345"/>
<path d="M103.772 63.7253C103.772 66.0073 100.983 67.1905 99.3774 65.5847C97.7716 63.9789 98.8703 61.1898 101.152 61.1053C102.589 61.1898 103.772 62.2885 103.772 63.7253ZM70.2192 51.8085C70.2192 56.626 67.2611 61.0208 62.7818 62.8801C58.3024 64.7395 53.1469 63.7253 49.6817 60.2602C46.2165 56.795 45.2024 51.6395 47.0617 47.1601C48.9211 42.6807 53.3159 39.7227 58.1334 39.7227C61.345 39.7227 64.3876 40.9904 66.585 43.1878C68.9515 45.5543 70.2192 48.5969 70.2192 51.8085Z" fill="white"/>
<path d="M66.6696 51.8933C66.6696 55.274 64.6412 58.4011 61.4295 59.6688C58.3024 60.9366 54.6682 60.2604 52.2173 57.8095C49.7663 55.3585 49.0901 51.8088 50.3579 48.5972C51.6256 45.4701 54.7527 43.3572 58.1334 43.3572C62.8663 43.4417 66.6696 47.2449 66.6696 51.8933Z" fill="#58595B"/>
<path d="M113.492 69.0498C103.772 75.8957 92.7006 81.0512 77.065 81.0512C69.7121 81.0512 68.2753 73.2757 63.3734 77.0789C60.8379 79.0228 52.0482 83.4176 45.0333 83.1641C38.0185 82.826 26.6933 78.6847 23.5661 63.8098C22.2984 78.7692 21.7068 89.7564 16.0442 102.349C27.2004 120.267 53.823 134.043 77.9947 128.127C75.3747 109.956 91.2638 92.2073 100.138 83.1641C103.603 79.6144 110.111 74.0363 113.492 69.0498Z" fill="#8BC53F"/>
<path d="M113.069 69.4727C110.026 72.2617 106.477 74.2901 102.843 76.0649C99.1238 77.8398 95.3206 79.192 91.3483 80.2907C87.3761 81.3049 83.2348 82.0656 79.0935 81.7275C74.8676 81.3895 70.6418 79.9527 67.8528 76.8256L68.0218 76.6566C71.4025 78.854 75.3747 79.6146 79.2625 79.7836C83.2348 79.8682 87.207 79.6146 91.0948 78.854C94.9825 78.0088 98.8703 76.8256 102.589 75.3043C106.308 73.783 109.942 72.0081 113.154 69.4727H113.069Z" fill="#58595B"/>
</svg>
