<svg width="605" height="104" viewBox="0 0 605 104" fill="none" xmlns="http://www.w3.org/2000/svg">
<path d="M89.0853 62.1783C87.2713 63.2868 85.155 63.4884 83.5426 62.5814C81.5271 61.3721 80.3178 58.6512 80.3178 54.9225V43.5349C80.3178 38.093 78.2015 34.1628 74.5736 33.155C68.4263 31.3411 63.7907 38.8992 62.0775 41.7209L51.1938 59.155V37.6899C51.093 32.7519 49.4806 29.8295 46.4574 28.9225C44.4419 28.3178 41.4186 28.6202 38.4961 33.0543L14.2093 71.9535C10.9845 65.8062 9.27132 58.9535 9.27132 52C9.27132 28.5194 28.1163 9.47286 51.1938 9.47286C74.2713 9.47286 93.1163 28.5194 93.1163 52V52.1008V52.2016C93.3178 56.7364 91.907 60.3643 89.0853 62.1783ZM102.388 52V51.8992V51.7984C102.287 23.2791 79.3101 0 51.1938 0C22.9767 0 0 23.2791 0 52C0 80.6202 22.9767 104 51.1938 104C64.1938 104 76.4884 99.062 85.9612 90.093C87.876 88.2791 87.9767 85.3566 86.1628 83.4419C84.4496 81.5271 81.5271 81.4263 79.6124 83.1395C79.6124 83.1395 79.6124 83.1395 79.5116 83.2403C71.8527 90.4961 61.5736 94.6279 50.9922 94.6279C38.5969 94.6279 27.5116 89.186 19.8527 80.5194L41.7209 45.4496V61.6744C41.7209 69.4341 44.7442 71.9535 47.2636 72.6589C49.7829 73.3643 53.6124 72.8605 57.7442 66.3101L69.7364 46.8605C70.1395 46.2558 70.4419 45.6511 70.845 45.2481V55.124C70.845 62.3798 73.7674 68.2248 78.8062 71.0465C83.3411 73.6667 89.0853 73.3643 93.8217 70.4418C99.6667 66.6124 102.791 59.9612 102.388 52ZM173.736 34.2636C174.946 34.969 176.054 36.6822 176.054 38.1938C176.054 40.6124 174.039 42.6279 171.721 42.6279C171.116 42.6279 170.612 42.4264 170.109 42.3256C167.388 40.3101 163.961 39 160.333 39C151.767 39 145.922 45.9535 145.922 54.6202C145.922 63.2868 151.868 70.1395 160.333 70.1395C164.566 70.1395 168.395 68.4264 171.217 65.7054C171.922 65.2016 172.829 64.8992 173.736 64.8992C176.054 64.8992 177.868 66.7132 177.868 69.031C177.868 70.5426 176.961 71.8527 175.853 72.5581C171.721 76.0853 166.178 78.4031 160.434 78.4031C147.333 78.4031 136.651 67.6201 136.651 54.3178C136.651 41.0155 147.333 30.2326 160.434 30.2326C165.271 30.1318 169.907 31.6434 173.736 34.2636ZM197.721 44.3411C206.69 44.3411 214.147 51.8992 214.147 61.2713C214.147 70.5426 206.589 78.5039 197.721 78.5039C188.349 78.5039 180.589 70.6434 180.589 61.2713C180.589 51.8992 188.349 44.3411 197.721 44.3411ZM197.62 70.1395C201.55 70.1395 204.876 66.4108 204.876 61.3721C204.876 56.3333 201.55 53.1085 197.62 53.1085C193.388 53.1085 189.86 56.2325 189.86 61.3721C189.86 66.3101 193.388 70.1395 197.62 70.1395ZM219.791 73.2636V49.4806C219.791 46.8605 221.806 44.7442 224.426 44.7442C226.946 44.7442 229.062 46.8605 229.062 49.4806V73.2636C229.062 75.8837 226.946 78 224.426 78C221.907 78 219.791 75.783 219.791 73.2636ZM219.085 35.7752C219.085 32.6512 221.504 30.2326 224.426 30.2326C227.45 30.2326 229.868 32.7519 229.868 35.7752C229.868 38.7984 227.45 41.217 224.426 41.217C221.403 41.1163 219.085 38.6977 219.085 35.7752ZM246.798 60.3643V73.2636C246.798 75.8837 244.682 78 242.163 78C239.643 78 237.527 75.8837 237.527 73.2636V48.3721C237.527 46.3566 239.14 44.7442 241.155 44.7442C243.171 44.7442 244.682 46.4574 244.682 48.3721C248.411 44.845 251.736 44.3411 254.86 44.3411C264.132 44.3411 268.264 51.2946 268.264 59.2558V73.2636C268.264 75.8837 266.147 78 263.628 78C261.108 78 258.992 75.8837 258.992 73.2636V60.3643C258.992 56.3333 258.488 52.907 252.643 52.907C248.512 52.907 246.798 56.3333 246.798 60.3643ZM298.295 65.3023C297.186 65.3023 296.481 64.7984 295.876 64.093L285.093 52.4031V73.2636C285.093 75.8837 282.977 78 280.457 78C277.938 78 275.822 75.8837 275.822 73.2636V31.9457C276.124 31.2403 276.829 30.7364 277.535 30.7364C278.341 30.7364 279.046 31.4419 279.55 31.9457L296.783 51.2946C297.287 51.8992 297.891 52.2016 298.295 52.2016C298.597 52.2016 299.302 51.8992 299.806 51.2946L317.039 31.9457C317.543 31.4419 318.147 30.7364 319.054 30.7364C319.86 30.7364 320.566 31.2403 320.767 31.9457V73.2636C320.767 75.8837 318.752 78 316.132 78C313.612 78 311.496 75.8837 311.496 73.2636V52.4031L300.713 64.093C299.907 64.7984 299.202 65.3023 298.295 65.3023ZM342.837 70.1395C346.969 70.1395 350.496 66.4108 350.496 61.3721C350.496 56.3333 346.868 53.0078 342.837 53.0078C338.806 53.0078 335.481 56.4341 335.481 61.3721C335.481 66.2093 338.705 70.1395 342.837 70.1395ZM352.713 74.3721L352.512 73.2636C350.698 76.7907 344.953 78.4031 341.326 78.4031C332.659 78.4031 326.209 70.5426 326.209 61.1705C326.209 51.8992 332.76 44.2403 341.829 44.2403C343.341 44.2403 348.581 44.6434 352.612 49.3798L352.814 48.2713C352.814 46.2558 354.326 44.6434 356.341 44.6434C358.357 44.6434 359.969 46.3566 359.969 48.2713V74.2713C359.969 76.2868 358.357 77.8992 356.341 77.8992C354.225 78 352.713 76.2868 352.713 74.3721ZM385.465 52.907H384.457C378.612 53.2093 377.504 56.5349 377.504 60.3643V73.2636C377.504 75.8837 375.388 78 372.868 78C370.349 78 368.233 75.8837 368.233 73.2636V48.3721C368.233 46.3566 369.845 44.7442 371.86 44.7442C373.876 44.7442 375.388 46.4574 375.388 48.3721C378.814 45.1473 381.636 44.4419 384.457 44.3411H385.364C387.581 44.3411 389.597 46.2558 389.597 48.6744C389.698 50.8915 387.682 52.907 385.465 52.907ZM421.24 71.0465C421.643 71.7519 421.946 72.4574 421.946 73.2636C421.946 75.6822 419.729 77.8992 417.31 77.8992C415.698 77.8992 414.287 76.6899 413.178 75.2791L402.496 62.8837V73.1628C402.496 75.7829 400.38 77.8992 397.86 77.8992C395.341 77.8992 393.225 75.7829 393.225 73.1628V35.3721C393.225 32.7519 395.24 30.6356 397.86 30.6356C400.481 30.6356 402.496 32.7519 402.496 35.3721V58.9535L413.178 47.1628C414.287 45.9535 415.597 44.6434 417.209 44.6434C419.527 44.6434 421.643 46.7597 421.643 49.1783C421.643 49.8837 421.442 50.6899 421.039 51.2946L412.574 60.5659L421.24 71.0465ZM439.38 53.0078C436.86 53.0078 432.729 54.3178 432.729 58.2481H446.132C446.031 54.3178 441.798 53.0078 439.38 53.0078ZM451.473 64.1938H432.729C432.729 69.7364 438.07 70.6434 440.388 70.6434C442.101 70.6434 444.519 70.3411 446.434 69.4341C447.039 69.031 447.946 68.7287 448.853 68.7287C450.868 68.7287 452.581 70.4418 452.581 72.5581C452.581 73.969 451.674 75.1783 450.566 75.8837C447.744 78 444.015 78.5039 440.488 78.5039C431.116 78.5039 423.357 73.4651 423.357 61.6744C423.357 52.4031 428.093 44.3411 439.178 44.3411C448.147 44.3411 454.899 50.186 455.101 60.5659C455.101 62.4806 453.488 64.1938 451.473 64.1938ZM477.271 78.4031H474.752C467.698 78.4031 463.566 75.2791 463.566 64.2946V52.907H461.147C458.93 52.907 457.015 50.8915 457.015 48.6744C457.015 46.2558 459.031 44.3411 461.147 44.3411H463.566V35.5737C463.566 32.9535 465.581 30.8372 468.201 30.8372C470.721 30.8372 472.837 32.9535 472.837 35.5737V44.3411H476.667C478.884 44.3411 480.798 46.2558 480.798 48.6744C480.798 50.8915 478.783 52.907 476.667 52.907H472.837V62.4806C472.837 68.8295 473.139 70.1395 475.961 70.1395H477.271C479.488 70.1395 481.403 71.9535 481.403 74.2713C481.403 76.4884 479.488 78.4031 477.271 78.4031ZM522.116 34.2636C523.326 34.969 524.434 36.6822 524.434 38.1938C524.434 40.6124 522.419 42.6279 520.101 42.6279C519.496 42.6279 518.992 42.4264 518.488 42.3256C515.767 40.3101 512.341 39 508.713 39C500.147 39 494.302 45.9535 494.302 54.6202C494.302 63.2868 500.248 70.1395 508.713 70.1395C512.946 70.1395 516.775 68.4264 519.597 65.7054C520.302 65.2016 521.209 64.8992 522.116 64.8992C524.434 64.8992 526.248 66.7132 526.248 69.031C526.248 70.5426 525.341 71.8527 524.232 72.5581C520.101 76.0853 514.558 78.4031 508.814 78.4031C495.713 78.4031 485.031 67.6201 485.031 54.3178C485.031 41.0155 495.713 30.2326 508.814 30.2326C513.651 30.1318 518.388 31.6434 522.116 34.2636ZM545.597 70.1395C549.729 70.1395 553.256 66.4108 553.256 61.3721C553.256 56.3333 549.628 53.0078 545.597 53.0078C541.465 53.0078 538.24 56.4341 538.24 61.3721C538.24 66.2093 541.566 70.1395 545.597 70.1395ZM555.473 74.3721L555.271 73.2636C553.457 76.7907 547.713 78.4031 544.085 78.4031C535.419 78.4031 528.969 70.5426 528.969 61.1705C528.969 51.8992 535.519 44.2403 544.589 44.2403C546.101 44.2403 551.341 44.6434 555.372 49.3798L555.574 48.2713C555.574 46.2558 557.085 44.6434 559.101 44.6434C561.116 44.6434 562.729 46.3566 562.729 48.2713V74.2713C562.729 76.2868 561.116 77.8992 559.101 77.8992C556.984 78 555.473 76.2868 555.473 74.3721ZM588.023 70.1395C592.155 70.1395 595.38 66.2093 595.38 61.3721C595.38 56.3333 592.054 53.0078 588.023 53.0078C583.891 53.0078 580.364 56.3333 580.364 61.3721C580.364 66.4108 583.891 70.1395 588.023 70.1395ZM580.364 75.6822V87.4729C580.364 90.093 578.248 92.2093 575.729 92.2093C573.209 92.2093 571.093 90.093 571.093 87.4729V48.3721C571.093 46.3566 572.705 44.7442 574.721 44.7442C576.736 44.7442 578.248 46.4574 578.248 48.7752C581.674 45.2481 585.907 44.3411 589.132 44.3411C598.101 44.3411 604.752 51.8992 604.752 61.2713C604.752 70.5426 598.403 78.5039 589.636 78.5039C586.915 78.4031 582.884 77.5969 580.364 75.6822Z" fill="white"/>
</svg>
