<svg width="31" height="30" viewBox="0 0 31 30" fill="none" xmlns="http://www.w3.org/2000/svg">
<path fill-rule="evenodd" clip-rule="evenodd" d="M5.74744 15.041C5.74744 9.51817 10.2246 5.04102 15.7474 5.04102C21.2703 5.04102 25.7474 9.51817 25.7474 15.041C25.7474 20.5639 21.2703 25.041 15.7474 25.041C10.2246 25.041 5.74744 20.5639 5.74744 15.041ZM19.4545 13.7482C19.8451 13.3577 19.8451 12.7246 19.4545 12.334C19.064 11.9435 18.4309 11.9435 18.0403 12.334L14.7474 15.6269L13.4545 14.334C13.064 13.9435 12.4309 13.9435 12.0403 14.334C11.6498 14.7246 11.6498 15.3577 12.0403 15.7482L14.0403 17.7482C14.4309 18.1388 15.064 18.1388 15.4545 17.7482L19.4545 13.7482Z" fill="url(#paint0_linear_94_1258)"/>
<defs>
<linearGradient id="paint0_linear_94_1258" x1="5.74744" y1="15.041" x2="25.7474" y2="15.041" gradientUnits="userSpaceOnUse">
<stop stop-color="#12ED60"/>
<stop offset="1" stop-color="#0A8737"/>
</linearGradient>
</defs>
</svg>
