<svg width="1171" height="230" viewBox="0 0 1171 230" fill="none" xmlns="http://www.w3.org/2000/svg">
<g clip-path="url(#clip0_471_2)">
<path d="M325.395 167.654H288.396L266.162 131.657L243.762 167.654H217.847C217.931 167.385 218.008 167.103 218.085 166.828C219.884 160.389 220.855 153.824 220.992 147.218L229.479 134.274L247.413 106.92L228.997 78.5953L210.331 49.8932L209.253 48.2341H246.251L266.824 81.8416L287.568 48.2341H323.733L285.573 106.579L325.395 167.654Z" fill="white"/>
<path d="M7.47473 48.2341V160.036H11.7571C14.8423 157.053 18.0883 154.244 21.5071 151.65C26.3374 147.991 31.5549 144.798 37.1059 142.366V120.103H87.6546V94.3898H37.1059V75.3849H92.9971V48.2341H7.47473Z" fill="white"/>
<mask id="mask0_471_2" style="mask-type:luminance" maskUnits="userSpaceOnUse" x="0" y="42" width="220" height="180">
<path d="M0 42.4302H219.563V221.411H0V42.4302Z" fill="white"/>
</mask>
<g mask="url(#mask0_471_2)">
<path d="M115.612 200.591C120.961 203.909 126.655 206.982 132.855 209.33C137.81 211.211 143.01 212.163 148.317 212.163C165.53 212.163 182.629 202.089 194.071 185.216C197.918 179.544 200.902 173.243 202.921 166.492C204.268 162.012 205.155 157.406 205.566 152.794C206.167 146.008 205.739 139.18 204.291 132.514C204.214 132.16 204.131 131.807 204.053 131.453C201.528 120.66 196.34 110.304 188.633 100.667C186.161 97.5703 184.047 94.3299 182.349 91.0297C182.195 90.7302 182.034 90.4367 181.885 90.1612C176.739 80.9552 166.905 75.2411 156.208 75.2411C148.257 75.2411 140.812 78.3318 135.243 83.944C129.889 89.3406 126.952 96.4383 126.964 103.931C126.982 109.262 128.501 114.461 131.36 118.965C133.498 122.325 136.268 125.17 139.597 127.422C142.099 129.117 143.975 131.609 144.874 134.448L144.904 134.544C146.679 140.264 146.381 146.361 144.034 152.183C142.843 155.13 141.187 157.879 139.109 160.353C138.549 161.018 137.953 161.665 137.346 162.276C136.184 163.438 134.928 164.504 133.611 165.444C131.521 166.93 129.335 168.056 127.113 168.804C128.775 169.733 130.413 170.464 132.045 171.003C134.356 171.775 135.892 174.021 135.791 176.477C135.69 178.867 134.058 180.855 131.723 181.418C127.846 182.359 123.903 183.018 119.942 183.401C122.914 185.108 126.166 186.222 129.615 186.719C131.104 186.929 132.42 187.797 133.242 189.115C133.26 189.151 133.331 189.259 133.331 189.259C133.784 190.014 134.046 190.888 134.082 191.792C134.118 192.367 134.058 192.942 133.903 193.487C133.838 193.739 133.76 193.943 133.707 194.074C133.206 195.338 132.277 196.339 131.08 196.896C128.144 198.273 124.91 199.279 121.485 199.878C119.656 200.196 117.733 200.429 115.612 200.591ZM148.186 222.854C141.652 222.854 135.219 221.674 129.061 219.339C116.118 214.433 105.523 206.97 95.2724 199.759L94.1765 198.992C93.8668 198.824 93.5809 198.645 93.301 198.447C92.9258 198.183 92.5386 197.92 92.1574 197.65C90.1681 196.261 88.6315 195.201 87.1723 194.218C82.2169 190.876 74.7361 186.078 67.0112 183.024C59.5542 180.083 51.7935 178.591 43.9376 178.591C43.7231 178.591 43.5147 178.591 43.3003 178.591C33.6932 178.693 23.3655 180.861 11.7334 185.222C11.6321 185.258 11.5368 185.294 11.4356 185.336C10.5184 185.683 9.25569 186.168 7.7786 186.168C6.41467 186.168 5.14604 185.767 4.00844 184.982C1.06617 182.958 0.119162 179.107 1.79876 176.022C2.34076 175.028 3.0257 174.303 3.57365 173.722C3.68682 173.596 3.80594 173.476 3.91314 173.357C4.4611 172.74 5.02692 172.117 5.59274 171.5C6.70651 170.296 7.83816 169.11 8.95193 167.978C10.0657 166.852 11.1914 165.75 12.3052 164.708C15.6524 161.551 19.1367 158.628 22.6508 156.023C28.1005 151.986 33.7468 148.703 39.4289 146.272C42.4724 144.966 45.5755 143.882 48.6547 143.061C54.027 141.618 59.59 140.887 65.1767 140.887C67.5472 140.887 69.9415 141.019 72.2882 141.288C78.8279 142.019 85.588 143.738 92.3778 146.391C98.1313 148.637 103.611 151.405 108.215 153.807C108.745 154.082 109.281 154.364 109.811 154.639C109.847 154.657 109.9 154.687 109.948 154.711C110.258 154.867 110.693 155.082 111.151 155.412C113.861 156.825 117.721 158.814 119.662 159.113C119.996 159.167 120.341 159.191 120.699 159.191C121.568 159.191 122.491 159.035 123.432 158.742C114.582 153.693 107.155 146.529 101.824 137.862C95.8621 128.171 92.7114 116.869 92.7114 105.183V104.86C92.7114 90.9758 97.0831 77.9185 105.356 67.0833C113.563 56.338 124.886 48.7193 138.09 45.0596C143.82 43.3586 149.794 42.4721 155.833 42.4362C155.952 42.4362 156.077 42.4362 156.197 42.4362C166.101 42.4362 175.976 44.8081 184.768 49.2943L184.809 49.3122L185.03 49.432C198.865 56.362 209.425 68.1495 214.78 82.6323C217.353 89.4305 218.657 96.576 218.657 103.865C218.657 103.955 218.657 104.039 218.657 104.129C218.657 104.267 218.657 104.404 218.657 104.542V104.86C218.657 112.293 217.389 119.534 214.893 126.392C214.708 128.195 214.798 130.01 215.155 131.795C215.78 134.927 216.215 138.126 216.448 141.294C216.626 143.726 216.692 146.188 216.638 148.608C216.501 155.118 215.53 161.641 213.749 167.978C213.672 168.253 213.595 168.523 213.511 168.792C211.182 176.765 207.621 184.311 202.933 191.223C194.619 203.484 183.052 213.109 170.36 218.332C163.07 221.333 155.613 222.854 148.186 222.854Z" fill="url(#paint0_linear_471_2)"/>
</g>
<path d="M130.032 192.409C130.02 192.469 129.996 192.523 129.978 192.577C129.865 192.859 129.674 193.098 129.388 193.23C126.661 194.512 123.778 195.38 120.8 195.895C117.756 196.428 114.659 196.656 111.574 196.758C108.608 196.854 105.606 196.955 102.646 196.788C102.646 196.788 102.646 196.788 102.652 196.788C97.8752 195.799 92.7471 192.913 88.3515 190.151C86.8685 189.163 85.3616 188.187 83.8309 187.234C82.0918 186.102 80.6028 185.168 79.489 184.641C75.9035 182.592 72.2227 180.742 68.4763 179.268C60.3881 176.07 51.9365 174.465 43.2586 174.554C31.954 174.668 20.8401 177.495 10.3278 181.436C9.57135 181.718 8.82089 182.041 8.07043 182.107C28.2851 165.75 75.9749 152.447 109.585 179.705C109.573 179.705 109.561 179.705 109.549 179.705C109.817 180.047 110.097 180.376 110.383 180.706C111.062 181.478 111.783 182.221 112.539 182.922C114.016 184.299 115.636 185.515 117.375 186.564C120.943 188.726 124.91 190.127 129.055 190.714C129.406 190.768 129.68 190.996 129.853 191.295C129.865 191.313 129.877 191.331 129.889 191.349C130.008 191.541 130.062 191.763 130.073 191.996C130.079 192.134 130.067 192.278 130.032 192.409Z" fill="white"/>
<path d="M378.757 46.1504H482.559V75.092H417.305V91.767H473.148V119.487H417.305V137.911H483.774V166.852H378.757V46.1504Z" fill="white"/>
<path d="M624.21 118.265C624.21 134.748 619.028 147.32 608.677 155.975C598.337 164.636 583.626 168.961 564.555 168.961C545.478 168.961 530.731 164.636 520.313 155.975C509.908 147.32 504.709 134.748 504.709 118.265V46.1504H543.256V117.738C543.256 124.512 545.055 129.921 548.664 133.958C552.268 138.001 557.503 140.019 564.364 140.019C571.226 140.019 576.491 137.977 580.16 133.886C583.828 129.783 585.663 124.398 585.663 117.738V46.1504H624.21V118.265Z" fill="white"/>
<path d="M763.951 83.166C763.951 90.5332 761.973 97.1996 758.018 103.171C754.064 109.131 748.304 113.515 740.746 116.324L767.429 166.852H724.164L702.89 122.817H688.571V166.852H650.024V46.1504H723.473C732.08 46.1504 739.436 47.8215 745.535 51.1577C751.645 54.4819 756.243 58.986 759.329 64.6702C762.408 70.3423 763.951 76.5056 763.951 83.166ZM724.689 84.7472C724.689 81.5847 723.64 78.9493 721.544 76.841C719.459 74.7327 716.904 73.6785 713.872 73.6785H688.571V95.9837H713.872C716.904 95.9837 719.459 94.9056 721.544 92.7493C723.64 90.5811 724.689 87.9097 724.689 84.7472Z" fill="white"/>
<path d="M845.4 44.042C866.109 44.042 882.101 49.3728 893.381 60.0222C904.674 70.6597 910.32 86.1548 910.32 106.501C910.32 126.854 904.674 142.355 893.381 153.005C882.101 163.642 866.109 168.961 845.4 168.961C824.703 168.961 808.74 163.666 797.513 153.076C786.298 142.487 780.694 126.962 780.694 106.501C780.694 86.029 786.298 70.504 797.513 59.9264C808.74 49.3368 824.703 44.042 845.4 44.042ZM845.4 72.9837C837.139 72.9837 830.855 75.4993 826.555 80.5306C822.267 85.5618 820.122 92.354 820.122 100.895V112.108C820.122 120.655 822.267 127.441 826.555 132.472C830.855 137.503 837.139 140.019 845.4 140.019C853.655 140.019 859.968 137.503 864.34 132.472C868.706 127.441 870.891 120.655 870.891 112.108V100.895C870.891 92.354 868.706 85.5618 864.34 80.5306C859.968 75.4993 853.655 72.9837 845.4 72.9837Z" fill="white"/>
<path d="M998.41 46.1504C1005.84 46.1504 1012.47 47.8754 1018.28 51.3254C1024.1 54.7754 1028.65 59.5131 1031.91 65.5327C1035.16 71.5582 1036.79 78.3144 1036.79 85.8014V88.0774C1036.79 95.5704 1035.16 102.357 1031.91 108.442C1028.65 114.515 1024.1 119.271 1018.28 122.721C1012.47 126.171 1005.84 127.896 998.41 127.896H969.607V166.852H931.059V46.1504H998.41ZM969.607 99.6493H985.497C989.559 99.6493 992.609 98.6071 994.646 96.5108C996.677 94.4024 997.695 91.5394 997.695 87.9097V86.4962C997.695 82.7587 996.677 79.8717 994.646 77.8233C992.609 75.7629 989.559 74.7327 985.497 74.7327H969.607V99.6493Z" fill="white"/>
<path d="M1057.01 46.1504H1160.81V75.092H1095.56V91.767H1151.4V119.487H1095.56V137.911H1162.03V166.852H1057.01V46.1504Z" fill="white"/>
</g>
<defs>
<linearGradient id="paint0_linear_471_2" x1="109.814" y1="42.4362" x2="109.814" y2="222.854" gradientUnits="userSpaceOnUse">
<stop stop-color="#E42B90"/>
<stop offset="1" stop-color="#7E1850"/>
</linearGradient>
<clipPath id="clip0_471_2">
<rect width="1171" height="230" fill="white"/>
</clipPath>
</defs>
</svg>
