<svg width="219" height="89" viewBox="0 0 219 89" fill="none" xmlns="http://www.w3.org/2000/svg">
<rect width="176" height="89" rx="44.5" fill="#DEE0E6"/>
<rect width="89" height="89" rx="44.5" fill="url(#paint0_linear_57_360)"/>
<mask id="mask0_57_360" style="mask-type:luminance" maskUnits="userSpaceOnUse" x="17" y="26" width="42" height="35">
<path d="M17 26H59V60.2398H17V26Z" fill="white"/>
</mask>
<g mask="url(#mask0_57_360)">
<path d="M39.1154 56.257C40.1385 56.8917 41.2277 57.4796 42.4137 57.9287C43.3617 58.2885 44.3563 58.4707 45.3714 58.4707C48.6641 58.4707 51.9351 56.5434 54.1237 53.3156C54.8597 52.2305 55.4305 51.0251 55.8167 49.7337C56.0742 48.8766 56.244 47.9955 56.3226 47.1132C56.4377 45.815 56.3556 44.5087 56.0788 43.2334C56.064 43.1658 56.048 43.0982 56.0332 43.0306C55.5501 40.9658 54.5578 38.9847 53.0835 37.141C52.6107 36.5486 52.2062 35.9287 51.8815 35.2974C51.8519 35.2401 51.8211 35.1839 51.7926 35.1312C50.8083 33.3701 48.9272 32.277 46.881 32.277C45.36 32.277 43.9359 32.8682 42.8706 33.9418C41.8463 34.9742 41.2847 36.3321 41.2869 37.7655C41.2904 38.7853 41.5809 39.7799 42.1278 40.6415C42.5368 41.2843 43.0666 41.8286 43.7034 42.2595C44.182 42.5837 44.5408 43.0604 44.7129 43.6035L44.7186 43.6218C45.0581 44.7161 45.0011 45.8826 44.5522 46.9963C44.3244 47.5601 44.0076 48.086 43.61 48.5592C43.5029 48.6864 43.389 48.8102 43.2728 48.9271C43.0506 49.1493 42.8102 49.3533 42.5584 49.5332C42.1585 49.8174 41.7404 50.0328 41.3154 50.176C41.6333 50.3536 41.9466 50.4934 42.2588 50.5965C42.7008 50.7443 42.9948 51.174 42.9754 51.6438C42.9561 52.101 42.6439 52.4814 42.1973 52.5891C41.4556 52.769 40.7013 52.8951 39.9437 52.9684C40.5122 53.295 41.1343 53.5081 41.7939 53.6032C42.0788 53.6433 42.3306 53.8095 42.4878 54.0615C42.4912 54.0684 42.5049 54.089 42.5049 54.089C42.5915 54.2334 42.6416 54.4007 42.6484 54.5737C42.6553 54.6837 42.6439 54.7937 42.6143 54.898C42.6017 54.9461 42.5869 54.9851 42.5767 55.0103C42.481 55.2521 42.3032 55.4434 42.0742 55.55C41.5125 55.8135 40.8939 56.006 40.2388 56.1206C39.889 56.1813 39.521 56.226 39.1154 56.257ZM45.3463 60.516C44.0965 60.516 42.866 60.2903 41.688 59.8434C39.2122 58.905 37.1854 57.4773 35.2246 56.0977L35.015 55.951C34.9557 55.9189 34.901 55.8846 34.8475 55.8467C34.7757 55.7963 34.7017 55.7459 34.6287 55.6943C34.2482 55.4285 33.9543 55.2257 33.6751 55.0378C32.7272 54.3984 31.2962 53.4806 29.8185 52.8962C28.3921 52.3336 26.9075 52.0483 25.4048 52.0483C25.3638 52.0483 25.3239 52.0483 25.2829 52.0483C23.4451 52.0678 21.4696 52.4826 19.2445 53.3167C19.2251 53.3236 19.2069 53.3305 19.1875 53.3385C19.012 53.405 18.7705 53.4978 18.488 53.4978C18.227 53.4978 17.9844 53.421 17.7668 53.2709C17.2039 52.8836 17.0228 52.1468 17.3441 51.5567C17.4478 51.3665 17.5788 51.2279 17.6836 51.1167C17.7052 51.0927 17.728 51.0698 17.7485 51.0468C17.8533 50.9288 17.9616 50.8097 18.0698 50.6916C18.2829 50.4613 18.4993 50.2345 18.7124 50.0179C18.9255 49.8025 19.1408 49.5916 19.3538 49.3923C19.9941 48.7884 20.6606 48.2292 21.3328 47.7308C22.3753 46.9585 23.4554 46.3306 24.5423 45.8654C25.1245 45.6156 25.7181 45.4082 26.3071 45.2512C27.3348 44.9751 28.3989 44.8353 29.4676 44.8353C29.9211 44.8353 30.3791 44.8605 30.828 44.9121C32.0789 45.0518 33.3721 45.3807 34.6709 45.8883C35.7715 46.318 36.8197 46.8474 37.7004 47.3068C37.8018 47.3596 37.9043 47.4134 38.0057 47.4661C38.0125 47.4696 38.0228 47.4753 38.0319 47.4799C38.0911 47.5097 38.1743 47.5509 38.262 47.6139C38.7804 47.8843 39.5187 48.2648 39.8901 48.3221C39.9539 48.3324 40.02 48.337 40.0884 48.337C40.2547 48.337 40.4313 48.3072 40.6113 48.251C38.9183 47.2851 37.4976 45.9147 36.4779 44.2566C35.3374 42.4027 34.7347 40.2405 34.7347 38.005V37.9431C34.7347 35.2871 35.571 32.7891 37.1535 30.7163C38.7235 28.6607 40.8893 27.2032 43.4152 26.5031C44.5112 26.1777 45.654 26.0081 46.8092 26.0012C46.832 26.0012 46.856 26.0012 46.8787 26.0012C48.7734 26.0012 50.6624 26.455 52.3441 27.3132L52.352 27.3166L52.3942 27.3396C55.0408 28.6653 57.0609 30.9203 58.0851 33.6909C58.5773 34.9914 58.8268 36.3584 58.8268 37.7529C58.8268 37.7701 58.8268 37.7861 58.8268 37.8033C58.8268 37.8297 58.8268 37.856 58.8268 37.8824V37.9431C58.8268 39.3651 58.5841 40.7504 58.1068 42.0624C58.0714 42.4073 58.0885 42.7544 58.1569 43.0959C58.2765 43.6952 58.3597 44.3071 58.4041 44.9132C58.4383 45.3784 58.4508 45.8493 58.4406 46.3123C58.4144 47.5578 58.2287 48.8056 57.888 50.0179C57.8732 50.0706 57.8584 50.1222 57.8424 50.1737C57.397 51.6988 56.7157 53.1426 55.819 54.4649C54.2285 56.8104 52.0159 58.6517 49.5881 59.6509C48.1935 60.225 46.7671 60.516 45.3463 60.516Z" fill="white"/>
</g>
<path d="M41.8736 54.6916C41.8713 54.7031 41.8668 54.7134 41.8634 54.7237C41.8417 54.7776 41.8053 54.8234 41.7506 54.8486C41.2288 55.0938 40.6773 55.26 40.1077 55.3585C39.5255 55.4605 38.933 55.504 38.3429 55.5235C37.7755 55.5419 37.2013 55.5613 36.635 55.5293H36.6362C35.7224 55.3402 34.7415 54.7879 33.9006 54.2597C33.6169 54.0706 33.3287 53.8838 33.0359 53.7016C32.7032 53.4851 32.4184 53.3063 32.2053 53.2055C31.5195 52.8136 30.8153 52.4596 30.0987 52.1777C28.5515 51.5658 26.9348 51.2587 25.2748 51.2759C23.1124 51.2977 20.9864 51.8385 18.9755 52.5925C18.8308 52.6463 18.6873 52.7082 18.5437 52.7208C22.4106 49.5915 31.5331 47.0466 37.9623 52.2613C37.96 52.2613 37.9578 52.2613 37.9555 52.2613C38.0068 52.3266 38.0603 52.3897 38.115 52.4527C38.2449 52.6005 38.3827 52.7426 38.5274 52.8766C38.81 53.1402 39.1199 53.3728 39.4526 53.5733C40.135 53.987 40.8938 54.2551 41.6868 54.3674C41.754 54.3777 41.8064 54.4212 41.8394 54.4785C41.8417 54.482 41.844 54.4854 41.8463 54.4888C41.8691 54.5255 41.8793 54.5679 41.8816 54.6126C41.8827 54.6389 41.8805 54.6664 41.8736 54.6916Z" fill="url(#paint1_linear_57_360)"/>
<path d="M217.768 46.7678C218.744 45.7914 218.744 44.2085 217.768 43.2322L201.858 27.3223C200.882 26.346 199.299 26.346 198.322 27.3223C197.346 28.2986 197.346 29.8815 198.322 30.8579L212.464 45L198.322 59.1421C197.346 60.1184 197.346 61.7014 198.322 62.6777C199.299 63.654 200.882 63.654 201.858 62.6777L217.768 46.7678ZM126 47.5L216 47.5L216 42.5L126 42.5L126 47.5Z" fill="#DEE0E6"/>
<defs>
<linearGradient id="paint0_linear_57_360" x1="44.5" y1="0" x2="44.5" y2="89" gradientUnits="userSpaceOnUse">
<stop stop-color="#12ED60"/>
<stop offset="1" stop-color="#0A8737"/>
</linearGradient>
<linearGradient id="paint1_linear_57_360" x1="18.5437" y1="52.4059" x2="41.8819" y2="52.4059" gradientUnits="userSpaceOnUse">
<stop stop-color="#E32B90"/>
<stop offset="1" stop-color="#7D184F"/>
</linearGradient>
</defs>
</svg>
