<svg width="89" height="89" viewBox="0 0 89 89" fill="none" xmlns="http://www.w3.org/2000/svg">
<rect width="89" height="89" rx="44.5" fill="url(#paint0_linear_57_350)"/>
<path d="M44.3578 65.6927C43.7523 65.6963 43.1594 65.5194 42.6548 65.1846C42.1502 64.8499 41.7568 64.3725 41.5246 63.8132C41.2924 63.254 41.232 62.6383 41.3511 62.0446C41.4702 61.4509 41.7634 60.9061 42.1933 60.4797L58.3508 44.3527L42.1933 28.2256C41.6939 27.6424 41.4329 26.8923 41.4625 26.125C41.4922 25.3578 41.8102 24.6299 42.3532 24.087C42.8961 23.5441 43.6239 23.226 44.3912 23.1964C45.1584 23.1667 45.9086 23.4277 46.4918 23.9271L64.7833 42.2186C65.3511 42.7898 65.6698 43.5625 65.6698 44.3679C65.6698 45.1733 65.3511 45.946 64.7833 46.5171L46.4918 64.8086C45.924 65.3719 45.1576 65.6894 44.3578 65.6927Z" fill="white"/>
<path d="M26.0663 65.6926C25.4608 65.6962 24.8679 65.5193 24.3633 65.1845C23.8587 64.8498 23.4652 64.3724 23.233 63.8131C23.0008 63.2539 22.9405 62.6382 23.0596 62.0445C23.1787 61.4508 23.4719 60.906 23.9018 60.4796L40.0593 44.3526L23.9018 28.2256C23.3278 27.6515 23.0053 26.8729 23.0053 26.0611C23.0053 25.2492 23.3278 24.4706 23.9018 23.8966C24.4759 23.3225 25.2545 23 26.0663 23C26.8782 23 27.6567 23.3225 28.2308 23.8966L46.5223 42.1881C47.0901 42.7593 47.4088 43.5319 47.4088 44.3373C47.4088 45.1427 47.0901 45.9154 46.5223 46.4866L28.2308 64.7781C27.9485 65.0661 27.6118 65.2953 27.2402 65.4523C26.8687 65.6093 26.4697 65.691 26.0663 65.6926Z" fill="white"/>
<defs>
<linearGradient id="paint0_linear_57_350" x1="44.5" y1="0" x2="44.5" y2="89" gradientUnits="userSpaceOnUse">
<stop stop-color="#12ED60"/>
<stop offset="1" stop-color="#0A8737"/>
</linearGradient>
</defs>
</svg>
