<svg width="50" height="46" viewBox="0 0 50 46" fill="none" xmlns="http://www.w3.org/2000/svg">
<path d="M6.81818 45.4545C5.46968 45.4545 4.15145 45.0546 3.03021 44.3054C1.90896 43.5562 1.03506 42.4914 0.519006 41.2455C0.00295422 39.9996 -0.132069 38.6287 0.131012 37.3061C0.394094 35.9835 1.04346 34.7687 1.997 33.8151C2.95054 32.8616 4.16543 32.2122 5.48802 31.9491C6.81062 31.686 8.18153 31.8211 9.42739 32.3371C10.6732 32.8532 11.7381 33.7271 12.4873 34.8483C13.2365 35.9696 13.6364 37.2878 13.6364 38.6363C13.6344 40.444 12.9154 42.1771 11.6372 43.4553C10.359 44.7335 8.62587 45.4525 6.81818 45.4545Z" fill="url(#paint0_linear_57_933)"/>
<path d="M21.0894 29.5886C20.9372 29.3319 20.7358 29.1077 20.4969 28.9289C20.258 28.7501 19.9861 28.6201 19.6969 28.5464C19.4077 28.4727 19.1068 28.4567 18.8114 28.4994C18.516 28.5421 18.232 28.6426 17.9755 28.7952L10.7527 33.0871C12.0255 33.9967 12.9465 35.3166 13.3612 36.825L20.297 32.7037C20.8151 32.3957 21.1896 31.8944 21.3382 31.3103C21.4868 30.7261 21.3973 30.1068 21.0894 29.5886Z" fill="white"/>
<path d="M43.1818 45.4545C41.8333 45.4545 40.5151 45.0546 39.3939 44.3054C38.2726 43.5562 37.3987 42.4914 36.8827 41.2455C36.3666 39.9996 36.2316 38.6287 36.4947 37.3061C36.7577 35.9835 37.4071 34.7687 38.3606 33.8151C39.3142 32.8616 40.5291 32.2122 41.8517 31.9491C43.1743 31.686 44.5452 31.8211 45.791 32.3371C47.0369 32.8532 48.1018 33.7271 48.8509 34.8483C49.6001 35.9696 50 37.2878 50 38.6363C49.998 40.444 49.2791 42.1771 48.0008 43.4553C46.7226 44.7335 44.9895 45.4525 43.1818 45.4545Z" fill="url(#paint1_linear_57_933)"/>
<path d="M39.2474 33.0877L32.0246 28.7958C31.768 28.6434 31.4839 28.543 31.1884 28.5003C30.893 28.4577 30.5921 28.4737 30.3028 28.5474C30.0135 28.6211 29.7416 28.751 29.5026 28.9298C29.2635 29.1085 29.0621 29.3326 28.9096 29.5893C28.7572 29.8459 28.6568 30.13 28.6142 30.4255C28.5716 30.7209 28.5875 31.0218 28.6612 31.3111C28.7349 31.6004 28.8648 31.8723 29.0436 32.1113C29.2224 32.3503 29.4465 32.5518 29.7031 32.7043L36.6388 36.8255C37.0535 35.3171 37.9746 33.9973 39.2474 33.0877Z" fill="white"/>
<path d="M25.0001 13.6364C23.6516 13.6364 22.3333 13.2365 21.2121 12.4873C20.0908 11.7381 19.2169 10.6733 18.7009 9.42739C18.1848 8.18153 18.0498 6.81062 18.3129 5.48802C18.576 4.16543 19.2253 2.95054 20.1789 1.997C21.1324 1.04346 22.3473 0.394094 23.6699 0.131013C24.9925 -0.132069 26.3634 0.00295422 27.6093 0.519006C28.8551 1.03506 29.92 1.90896 30.6692 3.03021C31.4184 4.15145 31.8182 5.46968 31.8182 6.81818C31.8163 8.62587 31.0973 10.359 29.8191 11.6372C28.5408 12.9154 26.8078 13.6344 25.0001 13.6364Z" fill="url(#paint2_linear_57_933)"/>
<path d="M25 13.6362C24.2239 13.6285 23.455 13.4868 22.7272 13.2173V20.4544C22.7272 21.0572 22.9667 21.6352 23.3929 22.0615C23.8191 22.4877 24.3972 22.7271 25 22.7271C25.6027 22.7271 26.1808 22.4877 26.607 22.0615C27.0332 21.6352 27.2727 21.0572 27.2727 20.4544V13.2174C26.5449 13.4869 25.776 13.6286 25 13.6362Z" fill="white"/>
<path d="M25.0001 34.091C28.7656 34.091 31.8182 31.0383 31.8182 27.2728C31.8182 23.5072 28.7656 20.4546 25.0001 20.4546C21.2345 20.4546 18.1819 23.5072 18.1819 27.2728C18.1819 31.0383 21.2345 34.091 25.0001 34.091Z" fill="url(#paint3_linear_57_933)"/>
<path d="M25 36.3637C23.202 36.3637 21.4444 35.8305 19.9494 34.8316C18.4544 33.8327 17.2892 32.4129 16.6011 30.7517C15.9131 29.0906 15.733 27.2627 16.0838 25.4993C16.4346 23.7358 17.3004 22.1159 18.5718 20.8446C19.8432 19.5732 21.463 18.7073 23.2265 18.3566C24.9899 18.0058 26.8178 18.1858 28.479 18.8739C30.1401 19.562 31.5599 20.7272 32.5588 22.2222C33.5578 23.7172 34.0909 25.4748 34.0909 27.2728C34.0884 29.6831 33.1298 31.9939 31.4254 33.6982C29.7211 35.4025 27.4103 36.3611 25 36.3637ZM25 22.7273C24.101 22.7273 23.2222 22.9939 22.4747 23.4934C21.7272 23.9929 21.1446 24.7028 20.8006 25.5333C20.4565 26.3639 20.3665 27.2778 20.5419 28.1596C20.7173 29.0413 21.1502 29.8512 21.7859 30.4869C22.4216 31.1226 23.2315 31.5555 24.1133 31.7309C24.995 31.9063 25.9089 31.8163 26.7395 31.4723C27.5701 31.1282 28.28 30.5456 28.7794 29.7981C29.2789 29.0506 29.5455 28.1718 29.5455 27.2728C29.5441 26.0677 29.0648 24.9123 28.2126 24.0602C27.3605 23.2081 26.2051 22.7287 25 22.7273Z" fill="url(#paint4_linear_57_933)"/>
<defs>
<linearGradient id="paint0_linear_57_933" x1="6.81818" y1="31.8181" x2="6.81818" y2="45.4545" gradientUnits="userSpaceOnUse">
<stop stop-color="#12ED60"/>
<stop offset="1" stop-color="#0A8737"/>
</linearGradient>
<linearGradient id="paint1_linear_57_933" x1="43.1818" y1="31.8181" x2="43.1818" y2="45.4545" gradientUnits="userSpaceOnUse">
<stop stop-color="#12ED60"/>
<stop offset="1" stop-color="#0A8737"/>
</linearGradient>
<linearGradient id="paint2_linear_57_933" x1="25.0001" y1="0" x2="25.0001" y2="13.6364" gradientUnits="userSpaceOnUse">
<stop stop-color="#12ED60"/>
<stop offset="1" stop-color="#0A8737"/>
</linearGradient>
<linearGradient id="paint3_linear_57_933" x1="25.0001" y1="20.4546" x2="25.0001" y2="34.091" gradientUnits="userSpaceOnUse">
<stop stop-color="#E32B90"/>
<stop offset="1" stop-color="#7D184F"/>
</linearGradient>
<linearGradient id="paint4_linear_57_933" x1="25" y1="18.1819" x2="25" y2="36.3637" gradientUnits="userSpaceOnUse">
<stop stop-color="#E32B90"/>
<stop offset="1" stop-color="#7D184F"/>
</linearGradient>
</defs>
</svg>
