<svg width="224" height="44" viewBox="0 0 224 44" fill="none" xmlns="http://www.w3.org/2000/svg">
<g clip-path="url(#clip0_57_686)">
<path d="M62.2446 32.0729H55.1672L50.9141 25.1865L46.6291 32.0729H41.6719C41.6878 32.0214 41.7026 31.9675 41.7174 31.9148C42.0615 30.683 42.2472 29.4272 42.2734 28.1633L43.897 25.6872L47.3275 20.4542L43.8047 15.0355L40.234 9.54469L40.0278 9.22729H47.1053L51.0405 15.6566L55.0088 9.22729H61.9268L54.6271 20.3889L62.2446 32.0729Z" fill="url(#paint0_linear_57_686)"/>
<path d="M1.42981 9.22729V30.6154H2.24898C2.83915 30.0448 3.46008 29.5074 4.11405 29.0113C5.03805 28.3111 6.03609 27.7004 7.09794 27.2352V22.9761H16.7674V18.0571H7.09794V14.4214H17.7893V9.22729H1.42981Z" fill="url(#paint1_linear_57_686)"/>
<mask id="mask0_57_686" style="mask-type:luminance" maskUnits="userSpaceOnUse" x="0" y="8" width="42" height="35">
<path d="M0 8.11719H42V42.357H0V8.11719Z" fill="white"/>
</mask>
<g mask="url(#mask0_57_686)">
<path d="M22.1154 38.3741C23.1385 39.0089 24.2277 39.5967 25.4137 40.0459C26.3617 40.4057 27.3563 40.5879 28.3714 40.5879C31.6641 40.5879 34.9351 38.6606 37.1237 35.4328C37.8597 34.3477 38.4305 33.1423 38.8167 31.8509C39.0742 30.9938 39.244 30.1127 39.3226 29.2304C39.4377 27.9322 39.3556 26.6259 39.0788 25.3506C39.064 25.283 39.048 25.2154 39.0332 25.1478C38.5501 23.083 37.5578 21.1018 36.0835 19.2582C35.6107 18.6658 35.2062 18.0459 34.8815 17.4146C34.8519 17.3573 34.8211 17.3011 34.7926 17.2484C33.8083 15.4873 31.9272 14.3941 29.881 14.3941C28.36 14.3941 26.9359 14.9854 25.8706 16.059C24.8463 17.0914 24.2847 18.4492 24.2869 19.8827C24.2904 20.9025 24.5809 21.8971 25.1278 22.7587C25.5368 23.4015 26.0666 23.9458 26.7034 24.3766C27.182 24.7009 27.5408 25.1776 27.7129 25.7207L27.7186 25.739C28.0581 26.8333 28.0011 27.9998 27.5522 29.1135C27.3244 29.6773 27.0076 30.2032 26.61 30.6764C26.5029 30.8036 26.389 30.9274 26.2728 31.0442C26.0506 31.2665 25.8102 31.4705 25.5584 31.6504C25.1585 31.9346 24.7404 32.15 24.3154 32.2932C24.6333 32.4708 24.9466 32.6106 25.2588 32.7137C25.7008 32.8615 25.9948 33.2912 25.9754 33.761C25.9561 34.2182 25.6439 34.5986 25.1973 34.7063C24.4556 34.8862 23.7013 35.0123 22.9437 35.0856C23.5122 35.4122 24.1343 35.6253 24.7939 35.7204C25.0788 35.7605 25.3306 35.9266 25.4878 36.1787C25.4912 36.1856 25.5049 36.2062 25.5049 36.2062C25.5915 36.3506 25.6416 36.5179 25.6484 36.6909C25.6553 36.8009 25.6439 36.9109 25.6143 37.0152C25.6017 37.0633 25.5869 37.1023 25.5767 37.1275C25.481 37.3692 25.3032 37.5606 25.0742 37.6672C24.5125 37.9307 23.8939 38.1232 23.2388 38.2378C22.889 38.2985 22.521 38.3432 22.1154 38.3741ZM28.3463 42.6332C27.0965 42.6332 25.866 42.4075 24.688 41.9606C22.2122 41.0222 20.1854 39.5945 18.2246 38.2149L18.015 38.0682C17.9557 38.0361 17.901 38.0017 17.8475 37.9639C17.7757 37.9135 17.7017 37.8631 17.6287 37.8115C17.2482 37.5457 16.9543 37.3429 16.6751 37.155C15.7272 36.5156 14.2962 35.5978 12.8185 35.0134C11.3921 34.4508 9.90755 34.1655 8.40478 34.1655C8.36377 34.1655 8.32389 34.1655 8.28287 34.1655C6.44515 34.185 4.46956 34.5998 2.24446 35.4339C2.22509 35.4408 2.20687 35.4477 2.1875 35.4557C2.01204 35.5222 1.7705 35.615 1.48795 35.615C1.22705 35.615 0.984372 35.5382 0.766761 35.3881C0.203936 35.0008 0.0227835 34.264 0.344073 33.6739C0.447751 33.4837 0.578773 33.3451 0.683591 33.2339C0.705238 33.2099 0.728024 33.187 0.748532 33.164C0.85335 33.046 0.961586 32.9268 1.06982 32.8088C1.28287 32.5785 1.49935 32.3516 1.7124 32.1351C1.92545 31.9197 2.14078 31.7088 2.35384 31.5095C2.99414 30.9056 3.66064 30.3464 4.33284 29.848C5.37532 29.0757 6.4554 28.4478 7.54231 27.9826C8.12451 27.7328 8.7181 27.5254 9.30713 27.3684C10.3348 27.0923 11.3989 26.9525 12.4676 26.9525C12.9211 26.9525 13.3791 26.9777 13.828 27.0292C15.0789 27.169 16.3721 27.4979 17.6709 28.0055C18.7715 28.4352 19.8197 28.9646 20.7004 29.424C20.8018 29.4767 20.9043 29.5306 21.0057 29.5833C21.0125 29.5867 21.0228 29.5925 21.0319 29.5971C21.0911 29.6268 21.1743 29.6681 21.262 29.7311C21.7804 30.0015 22.5187 30.382 22.8901 30.4392C22.9539 30.4496 23.02 30.4541 23.0884 30.4541C23.2547 30.4541 23.4313 30.4243 23.6113 30.3682C21.9183 29.4023 20.4976 28.0318 19.4779 26.3738C18.3374 24.5199 17.7347 22.3577 17.7347 20.1222V20.0603C17.7347 17.4042 18.571 14.9063 20.1535 12.8335C21.7235 10.7779 23.8893 9.32039 26.4152 8.62028C27.5112 8.29487 28.654 8.12528 29.8092 8.11841C29.832 8.11841 29.856 8.11841 29.8787 8.11841C31.7734 8.11841 33.6624 8.57216 35.3441 9.43039L35.352 9.43382L35.3942 9.45674C38.0408 10.7825 40.0609 13.0375 41.0851 15.8081C41.5773 17.1086 41.8268 18.4756 41.8268 19.8701C41.8268 19.8873 41.8268 19.9033 41.8268 19.9205C41.8268 19.9468 41.8268 19.9732 41.8268 19.9996V20.0603C41.8268 21.4823 41.5841 22.8676 41.1068 24.1796C41.0714 24.5245 41.0885 24.8716 41.1569 25.2131C41.2765 25.8124 41.3597 26.4242 41.4041 27.0304C41.4383 27.4956 41.4508 27.9665 41.4406 28.4295C41.4144 29.675 41.2287 30.9228 40.888 32.1351C40.8732 32.1878 40.8584 32.2393 40.8424 32.2909C40.397 33.816 39.7157 35.2598 38.819 36.5821C37.2285 38.9276 35.0159 40.7689 32.5881 41.7681C31.1935 42.3422 29.7671 42.6332 28.3463 42.6332Z" fill="url(#paint2_linear_57_686)"/>
</g>
<path d="M24.8737 36.8088C24.8715 36.8203 24.8669 36.8306 24.8635 36.8409C24.8418 36.8948 24.8054 36.9406 24.7507 36.9658C24.2289 37.211 23.6775 37.3772 23.1078 37.4757C22.5256 37.5777 21.9331 37.6212 21.343 37.6407C20.7756 37.659 20.2014 37.6785 19.6351 37.6464C19.6351 37.6464 19.6351 37.6464 19.6363 37.6464C18.7225 37.4574 17.7416 36.9051 16.9008 36.3769C16.6171 36.1878 16.3288 36.001 16.036 35.8188C15.7033 35.6023 15.4185 35.4235 15.2054 35.3227C14.5196 34.9308 13.8155 34.5768 13.0988 34.2949C11.5516 33.683 9.93494 33.3759 8.27494 33.3931C6.11251 33.4149 3.98653 33.9557 1.97563 34.7097C1.83093 34.7635 1.68738 34.8254 1.54382 34.838C5.41069 31.7087 14.5332 29.1638 20.9624 34.3785C20.9602 34.3785 20.9579 34.3785 20.9556 34.3785C21.0069 34.4438 21.0604 34.5069 21.1151 34.5699C21.245 34.7177 21.3829 34.8598 21.5275 34.9938C21.8101 35.2574 22.12 35.49 22.4527 35.6905C23.1351 36.1041 23.8939 36.3723 24.6869 36.4846C24.7541 36.4949 24.8065 36.5384 24.8396 36.5957C24.8418 36.5991 24.8441 36.6026 24.8464 36.606C24.8692 36.6427 24.8794 36.6851 24.8817 36.7298C24.8829 36.7561 24.8806 36.7836 24.8737 36.8088Z" fill="url(#paint3_linear_57_686)"/>
<path d="M72.4523 8.82886H92.3084V14.3655H79.826V17.5555H90.5083V22.8584H79.826V26.383H92.5408V31.9197H72.4523V8.82886Z" fill="url(#paint4_linear_57_686)"/>
<path d="M119.405 22.6247C119.405 25.778 118.414 28.1831 116.434 29.8389C114.456 31.4957 111.642 32.323 107.993 32.323C104.344 32.323 101.523 31.4957 99.5306 29.8389C97.5402 28.1831 96.5455 25.778 96.5455 22.6247V8.82886H103.919V22.5239C103.919 23.8198 104.263 24.8545 104.954 25.6268C105.643 26.4002 106.644 26.7864 107.957 26.7864C109.269 26.7864 110.277 26.3956 110.978 25.613C111.68 24.8281 112.031 23.798 112.031 22.5239V8.82886H119.405V22.6247Z" fill="url(#paint5_linear_57_686)"/>
<path d="M146.136 15.9101C146.136 17.3195 145.757 18.5948 145.001 19.7372C144.244 20.8773 143.143 21.716 141.697 22.2534L146.801 31.9197H138.525L134.455 23.4955H131.716V31.9197H124.343V8.82886H138.393C140.039 8.82886 141.446 9.14854 142.613 9.78677C143.782 10.4227 144.661 11.2844 145.252 12.3718C145.841 13.4569 146.136 14.6359 146.136 15.9101ZM138.625 16.2126C138.625 15.6076 138.425 15.1034 138.024 14.7001C137.625 14.2968 137.136 14.0951 136.556 14.0951H131.716V18.3622H136.556C137.136 18.3622 137.625 18.1559 138.024 17.7434C138.425 17.3286 138.625 16.8176 138.625 16.2126Z" fill="url(#paint6_linear_57_686)"/>
<path d="M161.716 8.42554C165.678 8.42554 168.737 9.44533 170.894 11.4826C173.055 13.5176 174.135 16.4819 174.135 20.3743C174.135 24.2678 173.055 27.2332 170.894 29.2705C168.737 31.3055 165.678 32.323 161.716 32.323C157.757 32.323 154.704 31.3101 152.556 29.2843C150.411 27.2585 149.339 24.2885 149.339 20.3743C149.339 16.4578 150.411 13.4878 152.556 11.4643C154.704 9.43845 157.757 8.42554 161.716 8.42554ZM161.716 13.9622C160.136 13.9622 158.934 14.4435 158.111 15.406C157.291 16.3685 156.881 17.6678 156.881 19.3018V21.4468C156.881 23.0819 157.291 24.3801 158.111 25.3426C158.934 26.3051 160.136 26.7864 161.716 26.7864C163.295 26.7864 164.503 26.3051 165.339 25.3426C166.174 24.3801 166.592 23.0819 166.592 21.4468V19.3018C166.592 17.6678 166.174 16.3685 165.339 15.406C164.503 14.4435 163.295 13.9622 161.716 13.9622Z" fill="url(#paint7_linear_57_686)"/>
<path d="M190.985 8.82886C192.407 8.82886 193.674 9.15886 194.786 9.81886C195.9 10.4789 196.77 11.3852 197.393 12.5368C198.015 13.6895 198.327 14.982 198.327 16.4143V16.8497C198.327 18.2831 198.015 19.5814 197.393 20.7455C196.77 21.9074 195.9 22.8172 194.786 23.4772C193.674 24.1372 192.407 24.4672 190.985 24.4672H185.476V31.9197H178.102V8.82886H190.985ZM185.476 19.0634H188.515C189.292 19.0634 189.876 18.8641 190.265 18.463C190.654 18.0597 190.849 17.512 190.849 16.8176V16.5472C190.849 15.8322 190.654 15.2799 190.265 14.888C189.876 14.4939 189.292 14.2968 188.515 14.2968H185.476V19.0634Z" fill="url(#paint8_linear_57_686)"/>
<path d="M202.195 8.82886H222.051V14.3655H209.569V17.5555H220.251V22.8584H209.569V26.383H222.284V31.9197H202.195V8.82886Z" fill="url(#paint9_linear_57_686)"/>
</g>
<defs>
<linearGradient id="paint0_linear_57_686" x1="40.0278" y1="20.6501" x2="62.2446" y2="20.6501" gradientUnits="userSpaceOnUse">
<stop stop-color="#12ED60"/>
<stop offset="1" stop-color="#0A8737"/>
</linearGradient>
<linearGradient id="paint1_linear_57_686" x1="1.42981" y1="19.9214" x2="17.7893" y2="19.9214" gradientUnits="userSpaceOnUse">
<stop stop-color="#12ED60"/>
<stop offset="1" stop-color="#0A8737"/>
</linearGradient>
<linearGradient id="paint2_linear_57_686" x1="21.0063" y1="8.11841" x2="21.0063" y2="42.6332" gradientUnits="userSpaceOnUse">
<stop stop-color="#E42B90"/>
<stop offset="1" stop-color="#7E1850"/>
</linearGradient>
<linearGradient id="paint3_linear_57_686" x1="1.54382" y1="34.5231" x2="24.882" y2="34.5231" gradientUnits="userSpaceOnUse">
<stop stop-color="#12ED60"/>
<stop offset="1" stop-color="#0A8737"/>
</linearGradient>
<linearGradient id="paint4_linear_57_686" x1="72.4523" y1="20.3743" x2="92.5408" y2="20.3743" gradientUnits="userSpaceOnUse">
<stop stop-color="#12ED60"/>
<stop offset="1" stop-color="#0A8737"/>
</linearGradient>
<linearGradient id="paint5_linear_57_686" x1="96.5455" y1="20.5759" x2="119.405" y2="20.5759" gradientUnits="userSpaceOnUse">
<stop stop-color="#12ED60"/>
<stop offset="1" stop-color="#0A8737"/>
</linearGradient>
<linearGradient id="paint6_linear_57_686" x1="124.343" y1="20.3743" x2="146.801" y2="20.3743" gradientUnits="userSpaceOnUse">
<stop stop-color="#12ED60"/>
<stop offset="1" stop-color="#0A8737"/>
</linearGradient>
<linearGradient id="paint7_linear_57_686" x1="149.339" y1="20.3743" x2="174.135" y2="20.3743" gradientUnits="userSpaceOnUse">
<stop stop-color="#12ED60"/>
<stop offset="1" stop-color="#0A8737"/>
</linearGradient>
<linearGradient id="paint8_linear_57_686" x1="178.102" y1="20.3743" x2="198.327" y2="20.3743" gradientUnits="userSpaceOnUse">
<stop stop-color="#12ED60"/>
<stop offset="1" stop-color="#0A8737"/>
</linearGradient>
<linearGradient id="paint9_linear_57_686" x1="202.195" y1="20.3743" x2="222.284" y2="20.3743" gradientUnits="userSpaceOnUse">
<stop stop-color="#12ED60"/>
<stop offset="1" stop-color="#0A8737"/>
</linearGradient>
<clipPath id="clip0_57_686">
<rect width="224" height="44" fill="white"/>
</clipPath>
</defs>
</svg>
