<svg width="50" height="42" viewBox="0 0 50 42" fill="none" xmlns="http://www.w3.org/2000/svg">
<path d="M26.3317 36.4183C27.5602 37.1749 28.8681 37.8756 30.2922 38.4109C31.4304 38.8398 32.6247 39.0569 33.8436 39.0569C37.7972 39.0569 41.7248 36.7597 44.3528 32.9124C45.2365 31.619 45.9219 30.1822 46.3857 28.643C46.6948 27.6214 46.8987 26.5711 46.9931 25.5195C47.1312 23.972 47.0327 22.4151 46.7003 20.895C46.6825 20.8144 46.6634 20.7338 46.6456 20.6532C46.0655 18.1921 44.874 15.8307 43.1038 13.6332C42.536 12.9271 42.0504 12.1882 41.6605 11.4357C41.6249 11.3674 41.588 11.3005 41.5538 11.2376C40.3718 9.13844 38.1132 7.8355 35.6562 7.8355C33.8299 7.8355 32.1199 8.54024 30.8407 9.81996C29.6109 11.0505 28.9365 12.669 28.9392 14.3775C28.9433 15.5931 29.2921 16.7785 29.9488 17.8056C30.4399 18.5718 31.0761 19.2205 31.8408 19.7341C32.4154 20.1206 32.8463 20.6887 33.0529 21.3361L33.0597 21.358C33.4674 22.6623 33.399 24.0526 32.86 25.3801C32.5864 26.0521 32.206 26.679 31.7286 27.2431C31.6 27.3947 31.4632 27.5422 31.3237 27.6815C31.0569 27.9464 30.7682 28.1895 30.4659 28.404C29.9857 28.7427 29.4837 28.9994 28.9734 29.1702C29.3551 29.3818 29.7313 29.5485 30.1061 29.6714C30.6369 29.8476 30.9899 30.3597 30.9666 30.9197C30.9434 31.4646 30.5685 31.9181 30.0322 32.0465C29.1417 32.2609 28.236 32.4111 27.3263 32.4985C28.0089 32.8878 28.7559 33.1418 29.548 33.2552C29.89 33.303 30.1923 33.501 30.3811 33.8015C30.3852 33.8097 30.4016 33.8342 30.4016 33.8342C30.5056 34.0063 30.5658 34.2057 30.574 34.412C30.5822 34.5431 30.5685 34.6742 30.5329 34.7985C30.5179 34.8558 30.5001 34.9023 30.4878 34.9323C30.3729 35.2205 30.1595 35.4486 29.8845 35.5756C29.2101 35.8897 28.4672 36.1192 27.6806 36.2558C27.2606 36.3281 26.8187 36.3814 26.3317 36.4183ZM33.8135 41.4948C32.3128 41.4948 30.8353 41.2258 29.4207 40.6931C26.448 39.5746 24.0143 37.8728 21.6599 36.2284L21.4082 36.0536C21.3371 36.0154 21.2714 35.9744 21.2071 35.9293C21.1209 35.8692 21.032 35.8091 20.9444 35.7477C20.4875 35.4308 20.1346 35.1891 19.7994 34.9651C18.6612 34.203 16.9429 33.109 15.1686 32.4125C13.4558 31.7419 11.6733 31.4018 9.86886 31.4018C9.81961 31.4018 9.77173 31.4018 9.72248 31.4018C7.51585 31.425 5.14369 31.9194 2.47193 32.9137C2.44867 32.9219 2.42678 32.9301 2.40353 32.9397C2.19285 33.0189 1.90283 33.1295 1.56356 33.1295C1.25028 33.1295 0.958887 33.038 0.697594 32.8591C0.0217873 32.3975 -0.195729 31.5193 0.190055 30.8159C0.314545 30.5892 0.471869 30.4239 0.597728 30.2914C0.62372 30.2628 0.651081 30.2355 0.675705 30.2081C0.801564 30.0675 0.931527 29.9254 1.06149 29.7847C1.31731 29.5102 1.57724 29.2398 1.83306 28.9817C2.08888 28.7249 2.34744 28.4736 2.60326 28.236C3.37209 27.5162 4.17239 26.8497 4.97953 26.2556C6.23127 25.3351 7.52816 24.5866 8.83326 24.0321C9.53233 23.7344 10.2451 23.4872 10.9523 23.3001C12.1863 22.9709 13.464 22.8043 14.7473 22.8043C15.2917 22.8043 15.8417 22.8344 16.3807 22.8958C17.8828 23.0624 19.4355 23.4544 20.995 24.0595C22.3166 24.5716 23.5751 25.2026 24.6326 25.7503C24.7544 25.8131 24.8775 25.8773 24.9993 25.9401C25.0075 25.9442 25.0198 25.951 25.0307 25.9565C25.1019 25.992 25.2017 26.0412 25.3071 26.1163C25.9295 26.4386 26.816 26.8921 27.262 26.9603C27.3386 26.9726 27.4179 26.9781 27.5 26.9781C27.6998 26.9781 27.9118 26.9426 28.1279 26.8757C26.0951 25.7243 24.3891 24.0909 23.1647 22.1146C21.7953 19.9048 21.0717 17.3276 21.0717 14.663V14.5892C21.0717 11.4234 22.0758 8.446 23.976 5.97533C25.8611 3.52514 28.4617 1.78788 31.4947 0.9534C32.8107 0.565522 34.1828 0.363389 35.57 0.355194C35.5974 0.355194 35.6261 0.355194 35.6535 0.355194C37.9285 0.355194 40.1967 0.896038 42.2159 1.919L42.2255 1.92309L42.2761 1.95041C45.454 3.5306 47.8796 6.21843 49.1094 9.52086C49.7004 11.071 50 12.7004 50 14.3625C50 14.383 50 14.4021 50 14.4226C50 14.454 50 14.4854 50 14.5168V14.5892C50 16.2841 49.7086 17.9354 49.1354 19.4992C49.093 19.9102 49.1135 20.3241 49.1956 20.7311C49.3392 21.4454 49.4391 22.1747 49.4925 22.8972C49.5335 23.4517 49.5485 24.013 49.5362 24.5648C49.5048 26.0494 49.2818 27.5367 48.8727 28.9817C48.855 29.0445 48.8372 29.106 48.818 29.1674C48.2831 30.9853 47.465 32.7061 46.3884 34.2822C44.4786 37.0779 41.8219 39.2727 38.9067 40.4637C37.2322 41.1479 35.5194 41.4948 33.8135 41.4948Z" fill="url(#paint0_linear_94_1451)"/>
<path d="M29.3854 34.449C29.3827 34.4627 29.3773 34.4751 29.3733 34.4875C29.3477 34.5521 29.3045 34.6071 29.2398 34.6374C28.6223 34.9317 27.9698 35.1311 27.2957 35.2494C26.6068 35.3718 25.9057 35.4241 25.2073 35.4475C24.5359 35.4695 23.8564 35.4929 23.1864 35.4544C23.1864 35.4544 23.1864 35.4544 23.1877 35.4544C22.1065 35.2274 20.9456 34.5645 19.9507 33.9304C19.615 33.7035 19.2739 33.4793 18.9274 33.2606C18.5337 33.0007 18.1967 32.7861 17.9445 32.6651C17.1329 32.1947 16.2997 31.7697 15.4517 31.4314C13.6208 30.6969 11.7077 30.3283 9.7434 30.3489C7.18451 30.3751 4.66875 31.0242 2.28917 31.9292C2.11795 31.9939 1.94807 32.0682 1.7782 32.0833C6.35401 28.3271 17.1491 25.2724 24.757 31.5318C24.7543 31.5318 24.7516 31.5318 24.7489 31.5318C24.8096 31.6102 24.873 31.6858 24.9377 31.7614C25.0914 31.9389 25.2545 32.1094 25.4257 32.2703C25.7601 32.5867 26.1268 32.8659 26.5205 33.1066C27.3281 33.6031 28.226 33.9249 29.1643 34.0597C29.2439 34.0721 29.3059 34.1244 29.345 34.1931C29.3477 34.1973 29.3504 34.2014 29.3531 34.2055C29.38 34.2495 29.3922 34.3004 29.3949 34.3541C29.3962 34.3857 29.3935 34.4187 29.3854 34.449Z" fill="#E32B90"/>
<defs>
<linearGradient id="paint0_linear_94_1451" x1="0" y1="20.925" x2="50" y2="20.925" gradientUnits="userSpaceOnUse">
<stop stop-color="#12ED60"/>
<stop offset="1" stop-color="#0A8737"/>
</linearGradient>
</defs>
</svg>
