<svg width="49" height="46" viewBox="0 0 49 46" fill="none" xmlns="http://www.w3.org/2000/svg">
<path d="M18.6342 30.3849H16.7227V33.3664H18.6342C19.4517 33.3664 20.125 32.6932 20.125 31.8757C20.125 31.0461 19.4517 30.3849 18.6342 30.3849ZM18.6342 26.1892H16.7227V29.1707H18.6342C19.4517 29.1707 20.125 28.4974 20.125 27.6799C20.125 26.8564 19.4517 26.1892 18.6342 26.1892Z" fill="url(#paint0_linear_7_578)"/>
<path d="M43.9527 33.9495H41.3199C45.3233 32.056 48.0883 27.9865 48.0883 23.2799C48.0883 16.7639 42.7806 11.4622 36.2646 11.4622C32.3695 11.4622 28.9071 13.3617 26.7612 16.283C26.2622 15.6399 25.7573 15.0207 25.2584 14.4196C25.9797 14.065 26.4786 13.3136 26.4786 12.454C26.4786 11.378 25.7152 10.4764 24.6934 10.278C25.9617 8.68509 26.9295 6.67139 27.224 4.31506C27.4765 2.32541 27.236 1.14724 26.4606 0.49204C25.4147 -0.397594 23.7857 0.08329 21.9163 0.648328C20.5457 1.06309 19.0009 1.52594 17.4981 1.52594C15.9653 1.52594 14.4866 1.05107 13.1942 0.618273C11.5833 0.0953121 10.1827 -0.361527 9.24498 0.419908C8.48759 1.03905 8.28322 2.20519 8.5477 4.31506C8.83022 6.66538 9.80401 8.68509 11.0723 10.278C10.6275 10.3622 10.2368 10.5786 9.93024 10.8851C9.53351 11.2819 9.28105 11.8409 9.28105 12.454C9.28105 13.3196 9.77395 14.059 10.4953 14.4196C5.63235 20.2684 0 28.2631 0 33.8834C0 38.4277 1.80331 41.0185 3.75089 43.1464C4.88698 44.3847 6.50395 45.1 8.19906 45.1H40.3581C41.4582 45.1 42.3478 44.2103 42.3478 43.1163V40.7901C42.3478 40.5977 42.3177 40.4114 42.2696 40.231H43.9527C45.0467 40.231 45.9364 39.3414 45.9364 38.2474V35.9211C45.9364 34.8391 45.0407 33.9495 43.9527 33.9495ZM44.5118 38.2534C44.5118 38.56 44.2593 38.8124 43.9527 38.8124H41.4281V35.3741H43.9527C44.2593 35.3741 44.5118 35.6266 44.5118 35.9331V38.2534ZM8.19906 43.6754C6.90669 43.6754 5.66841 43.1344 4.80282 42.1846C2.7771 39.9726 1.42462 37.7124 1.42462 33.8834C1.42462 28.4975 7.32746 20.4006 12.1603 14.6661H13.8374C13.2964 15.4175 12.9658 16.3191 12.9177 17.3109C12.8937 17.7017 13.2002 18.0383 13.597 18.0623C13.9817 18.0683 14.3243 17.7798 14.3484 17.3831C14.4025 16.247 14.9855 15.2672 15.8451 14.6661H19.9086C20.7742 15.2672 21.3512 16.247 21.4053 17.3831C21.4294 17.7618 21.7419 18.0623 22.1206 18.0623H22.1567C22.5474 18.0383 22.854 17.7077 22.8359 17.3109C22.7879 16.3191 22.4512 15.4114 21.9163 14.6661H23.5933C24.3567 15.5798 25.1562 16.5475 25.9557 17.5634C25.0059 19.2585 24.4709 21.2061 24.4709 23.2799C24.4709 23.4783 24.477 23.6766 24.483 23.881C22.86 22.0657 20.4977 20.9176 17.8708 20.9176C12.9778 20.9176 9.01656 24.8969 9.01656 29.7778C9.01656 34.6708 12.9838 38.6321 17.8708 38.6321C22.6195 38.6321 26.4967 34.9053 26.7191 30.2106C27.8732 31.8096 29.424 33.0959 31.2213 33.9495H27.3142C26.2262 33.9495 25.3305 34.8391 25.3305 35.9331V38.2594C25.3305 38.4518 25.3606 38.6381 25.4087 38.8184H23.7256C22.6256 38.8184 21.7419 39.7081 21.7419 40.8021V43.1284C21.7419 43.3207 21.772 43.507 21.8201 43.6874H8.19906V43.6754ZM10.1466 1.52594C10.2308 1.45982 10.363 1.43577 10.5253 1.43577C11.0543 1.43577 11.9439 1.71829 12.7494 1.98278C14.0839 2.41557 15.7369 2.96258 17.4981 2.96258C19.2173 2.96258 20.8643 2.46366 22.325 2.03087C23.6775 1.62212 25.0781 1.20134 25.5409 1.59807C25.6912 1.71829 25.8896 2.05491 25.8896 2.96859C25.8896 3.28717 25.8595 3.6839 25.8054 4.15276C25.5048 6.59325 24.2786 8.71514 22.7818 10.248H12.9778C11.4811 8.71514 10.2608 6.58724 9.95428 4.15276C9.70182 2.13305 10.0024 1.64616 10.1466 1.52594ZM27.6808 17.4552C29.5503 14.7021 32.7001 12.8928 36.2646 12.8928C41.9991 12.8928 46.6637 17.5514 46.6637 23.2799C46.6637 29.0084 41.9991 33.661 36.2646 33.661C36.0843 33.661 35.916 33.655 35.7356 33.6489C35.5012 33.6369 35.2608 33.6189 35.0203 33.5828C34.7799 33.5588 34.5455 33.5167 34.305 33.4686C29.5142 32.5549 25.8835 28.3352 25.8835 23.2799C25.8835 21.6749 26.2442 20.1662 26.8934 18.8077C27.0076 18.5672 27.1278 18.3328 27.2661 18.1044C27.4043 17.882 27.5366 17.6596 27.6808 17.4552ZM40.0035 38.8124H36.3428V35.3741H40.0035V38.8124ZM24.8256 29.7658C24.8256 30.2948 24.3988 30.7216 23.8698 30.7216H23.8638C23.3349 30.7216 22.9141 30.2948 22.9141 29.7658C22.9141 29.2368 23.3349 28.8161 23.8638 28.8161H23.8698C24.3988 28.8221 24.8256 29.2429 24.8256 29.7658ZM29.8328 38.8124H27.3082C27.0016 38.8124 26.7491 38.56 26.7491 38.2534V35.9271C26.7491 35.6206 26.9956 35.3681 27.3082 35.3681H29.8328V38.8124ZM31.2574 38.8124V35.3741H34.9181V38.6862C34.9061 38.7283 34.8821 38.7704 34.87 38.8124H31.2574ZM21.3332 31.8697C21.3332 33.2342 20.3233 34.3643 19.0009 34.5446V35.1277C19.0009 35.4643 18.7304 35.7348 18.3938 35.7348C18.0572 35.7348 17.7867 35.4643 17.7867 35.1277V34.5746H16.7167V35.1337C16.7167 35.4703 16.4462 35.7408 16.1096 35.7408C15.773 35.7408 15.5025 35.4703 15.5025 35.1337V34.5746H15.0156C14.679 34.5746 14.4085 34.3041 14.4085 33.9675C14.4085 33.6309 14.679 33.3604 15.0156 33.3604H15.5025V26.1892H15.0156C14.679 26.1892 14.4085 25.9187 14.4085 25.5821C14.4085 25.2455 14.679 24.975 15.0156 24.975H15.5025V24.416C15.5025 24.0794 15.773 23.8089 16.1096 23.8089C16.4462 23.8089 16.7167 24.0794 16.7167 24.416V24.975H17.7927V24.416C17.7927 24.0794 18.0632 23.8089 18.3998 23.8089C18.7364 23.8089 19.0069 24.0794 19.0069 24.416V24.9991C20.3233 25.1794 21.3392 26.3095 21.3392 27.674C21.3392 28.5215 20.9485 29.2789 20.3354 29.7718C20.9425 30.2707 21.3332 31.0221 21.3332 31.8697ZM13.5789 29.7658C13.5789 30.2948 13.1522 30.7216 12.6232 30.7216H12.6112C12.0882 30.7216 11.6614 30.2948 11.6614 29.7658C11.6614 29.2368 12.0882 28.8161 12.6112 28.8161H12.6232C13.1461 28.8221 13.5789 29.2429 13.5789 29.7658Z" fill="url(#paint1_linear_7_578)"/>
<path d="M38.4106 21.2603C38.4106 20.4848 37.7734 19.8477 36.998 19.8477H35.1886V22.6668H36.998C37.7794 22.6668 38.4106 22.0417 38.4106 21.2603ZM38.4106 25.2937C38.4106 24.5182 37.7734 23.8811 36.998 23.8811H35.1886V26.7002H36.998C37.7794 26.6942 38.4106 26.0691 38.4106 25.2937Z" fill="#5CE1E6"/>
<path d="M33.9864 31.473C34.2389 31.5452 34.4974 31.6113 34.7619 31.6534C35.0023 31.7014 35.2548 31.7315 35.5132 31.7555C35.7657 31.7796 36.0121 31.7916 36.2706 31.7916C40.9773 31.7916 44.7943 27.9866 44.7943 23.286C44.7943 18.5854 40.9773 14.7623 36.2706 14.7623C33.1028 14.7623 30.3437 16.4935 28.8831 19.0602C28.7448 19.2886 28.6246 19.5291 28.5104 19.7755C28.3962 20.034 28.294 20.2865 28.2038 20.557C27.9213 21.4105 27.759 22.3302 27.759 23.28C27.759 27.1871 30.3918 30.4812 33.9864 31.473ZM42.0292 22.3603H42.0352C42.5401 22.3603 42.9609 22.769 42.9609 23.274C42.9609 23.7789 42.5401 24.1937 42.0352 24.1937H42.0292C41.5243 24.1937 41.1155 23.7789 41.1155 23.274C41.1155 22.769 41.5183 22.3603 42.0292 22.3603ZM33.5296 18.6395H33.9804V18.1285C33.9804 17.7979 34.2509 17.5214 34.5875 17.5214C34.9242 17.5214 35.1946 17.7979 35.1946 18.1285V18.6395H36.1684V18.1285C36.1684 17.7979 36.4389 17.5214 36.7755 17.5214C37.1122 17.5214 37.3827 17.7979 37.3827 18.1285V18.6695C38.651 18.8558 39.6308 19.9438 39.6308 21.2663C39.6308 22.0718 39.2581 22.7991 38.6811 23.28C39.2581 23.7669 39.6308 24.4822 39.6308 25.2997C39.6308 26.6101 38.651 27.7041 37.3827 27.8904V28.4314C37.3827 28.7681 37.1122 29.0386 36.7755 29.0386C36.4389 29.0386 36.1684 28.7681 36.1684 28.4314V27.9205H35.1946V28.4314C35.1946 28.732 34.9722 28.9784 34.6897 29.0205C34.6597 29.0325 34.6236 29.0325 34.5875 29.0325C34.2509 29.0325 33.9804 28.762 33.9804 28.4254V27.9145H33.5296C33.4995 27.9145 33.4755 27.9145 33.4454 27.9085C33.1509 27.8664 32.9225 27.6139 32.9225 27.3074C32.9225 27.1932 32.9525 27.091 33.0066 27.0008C33.1088 26.8205 33.3072 26.7003 33.5296 26.7003H33.9744V19.8477H33.5236C33.187 19.8477 32.9165 19.5772 32.9165 19.2406C32.9225 18.9099 33.193 18.6395 33.5296 18.6395ZM31.1612 22.3663C31.1733 22.3603 31.1973 22.3603 31.2093 22.3603H31.2213C31.7263 22.3603 32.141 22.769 32.141 23.274C32.141 23.4363 32.099 23.5925 32.0148 23.7308C31.8946 23.9472 31.6842 24.1095 31.4438 24.1636C31.3716 24.1876 31.2995 24.1937 31.2213 24.1937H31.2093C30.7044 24.1937 30.2956 23.7789 30.2956 23.274C30.2956 23.0455 30.3738 22.8412 30.5181 22.6849C30.6683 22.4985 30.9028 22.3723 31.1612 22.3663Z" fill="url(#paint2_linear_7_578)"/>
<defs>
<linearGradient id="paint0_linear_7_578" x1="18.4238" y1="26.1892" x2="18.4238" y2="33.3664" gradientUnits="userSpaceOnUse">
<stop stop-color="#5CE1E6"/>
<stop offset="1" stop-color="#35A0A4"/>
</linearGradient>
<linearGradient id="paint1_linear_7_578" x1="24.0442" y1="0" x2="24.0442" y2="45.1" gradientUnits="userSpaceOnUse">
<stop stop-color="#5CE1E6"/>
<stop offset="1" stop-color="#35A0A4"/>
</linearGradient>
<linearGradient id="paint2_linear_7_578" x1="36.2766" y1="14.7623" x2="36.2766" y2="31.7916" gradientUnits="userSpaceOnUse">
<stop stop-color="#5CE1E6"/>
<stop offset="1" stop-color="#35A0A4"/>
</linearGradient>
</defs>
</svg>
