<svg width="26" height="26" viewBox="0 0 26 26" fill="none" xmlns="http://www.w3.org/2000/svg">
<path fill-rule="evenodd" clip-rule="evenodd" d="M13 25.5C19.9037 25.5 25.5 19.9037 25.5 13C25.5 6.09625 19.9037 0.5 13 0.5C6.09625 0.5 0.5 6.09625 0.5 13C0.5 19.9037 6.09625 25.5 13 25.5ZM11.6425 14.595C11.5375 15.295 12.1325 15.8725 12.84 15.8725H13.4275C13.5944 15.8725 13.7551 15.8089 13.8767 15.6947C13.9984 15.5804 14.072 15.4241 14.0825 15.2575C14.1538 14.6 14.4362 14.025 14.9275 13.5338L15.715 12.7587C16.33 12.14 16.76 11.5787 17.0063 11.075C17.2525 10.5638 17.375 10.0225 17.375 9.45125C17.375 8.195 16.9963 7.22375 16.2387 6.53875C15.4812 5.84625 14.4163 5.5 13.0437 5.5C11.6838 5.5 10.61 5.8625 9.81875 6.58875C9.35039 7.02318 9.00794 7.57594 8.8275 8.18875C8.5975 8.94375 9.2775 9.6025 10.065 9.6025C10.7325 9.6025 11.2313 9.05875 11.695 8.5525C11.76 8.48125 11.8237 8.41 11.8875 8.3425C12.18 8.03375 12.565 7.88 13.0437 7.88C14.0538 7.88 14.5588 8.4475 14.5588 9.5825C14.5588 9.95875 14.4613 10.3187 14.2675 10.6612C14.0737 10.9975 13.6813 11.4375 13.0925 11.9813C12.51 12.5188 12.1087 13.0675 11.8875 13.625C11.7787 13.9012 11.6975 14.225 11.6425 14.595ZM11.7137 17.8587C11.4225 18.1475 11.2763 18.5175 11.2763 18.9675C11.2763 19.4113 11.4188 19.7775 11.7038 20.0675C11.995 20.355 12.3775 20.5 12.85 20.5C13.3225 20.5 13.7 20.355 13.9862 20.0662C14.2775 19.7775 14.4237 19.4113 14.4237 18.9675C14.4237 18.5175 14.2738 18.1475 13.9762 17.8587C13.685 17.5625 13.3088 17.415 12.85 17.415C12.39 17.415 12.0125 17.5625 11.7137 17.8587Z" fill="white"/>
</svg>
