<svg width="23" height="24" viewBox="0 0 23 24" fill="none" xmlns="http://www.w3.org/2000/svg">
<rect width="23" height="24" fill="#E5E5E5"/>
<g id="Home" clip-path="url(#clip0_3383_2319)">
<rect width="1920" height="1080" transform="translate(-48 -247)" fill="url(#paint0_radial_3383_2319)"/>
<g id="Create Token">
<g id="Vector 4" opacity="0.15" filter="url(#filter0_f_3383_2319)">
<path d="M391.675 455.786C288.707 489.509 118.34 439.31 47.681 378.978L122.232 -160.479L778.237 -97.2408L658.125 5.49749C628.569 37.2899 565.901 126.617 551.671 229.585C533.884 358.296 494.643 422.064 391.675 455.786Z" fill="url(#paint1_linear_3383_2319)"/>
</g>
</g>
<g id="MENU">
<rect width="361" height="1080" transform="translate(-48 -247)" fill="url(#paint2_linear_3383_2319)"/>
<g id="Home_2">
<path id="Vector" d="M8.04241 22.5385V18.8583C8.04239 17.9257 8.80739 17.168 9.75495 17.1622H13.2342C14.186 17.1622 14.9576 17.9215 14.9576 18.8583V22.5278C14.9576 23.3367 15.6207 23.9941 16.4425 24H18.8162C19.9248 24.0028 20.989 23.5713 21.7739 22.8008C22.5589 22.0303 23 20.9841 23 19.893V9.439C23 8.55765 22.603 7.72164 21.9161 7.15619L13.852 0.809121C12.4424 -0.301053 10.4291 -0.26519 9.06126 0.89446L1.17059 7.15619C0.451212 7.70497 0.0212475 8.54346 0 9.439V19.8823C0 22.1564 1.87315 24 4.18379 24H6.5033C6.899 24.0028 7.27948 23.85 7.56031 23.5757C7.84113 23.3013 7.99907 22.9279 7.99906 22.5385H8.04241Z" fill="white"/>
</g>
</g>
</g>
<defs>
<filter id="filter0_f_3383_2319" x="-152.319" y="-360.479" width="1130.56" height="1027.12" filterUnits="userSpaceOnUse" color-interpolation-filters="sRGB">
<feFlood flood-opacity="0" result="BackgroundImageFix"/>
<feBlend mode="normal" in="SourceGraphic" in2="BackgroundImageFix" result="shape"/>
<feGaussianBlur stdDeviation="100" result="effect1_foregroundBlur_3383_2319"/>
</filter>
<radialGradient id="paint0_radial_3383_2319" cx="0" cy="0" r="1" gradientUnits="userSpaceOnUse" gradientTransform="translate(1140.5 584.808) rotate(-0.211126) scale(779.505 1829.31)">
<stop stop-color="#056189"/>
<stop offset="1" stop-color="#000C2B"/>
</radialGradient>
<linearGradient id="paint1_linear_3383_2319" x1="253.79" y1="12.4062" x2="432.598" y2="289.288" gradientUnits="userSpaceOnUse">
<stop offset="0.150838" stop-color="#0194FE"/>
<stop offset="1" stop-color="#0194FE" stop-opacity="0"/>
</linearGradient>
<linearGradient id="paint2_linear_3383_2319" x1="85.5" y1="294.128" x2="81.5399" y2="1080" gradientUnits="userSpaceOnUse">
<stop stop-color="#000C2B"/>
<stop offset="0.862833" stop-color="#022640"/>
</linearGradient>
<clipPath id="clip0_3383_2319">
<rect width="1920" height="1080" fill="white" transform="translate(-48 -247)"/>
</clipPath>
</defs>
</svg>
