<svg width="27" height="27" viewBox="0 0 27 27" fill="none" xmlns="http://www.w3.org/2000/svg">
<path d="M13.5 26C20.4036 26 26 20.4036 26 13.5C26 6.59644 20.4036 1 13.5 1C6.59644 1 1 6.59644 1 13.5C1 20.4036 6.59644 26 13.5 26Z" fill="#010E2D" stroke="white" stroke-width="2" stroke-miterlimit="10"/>
<path d="M13.5 24.1479C19.3808 24.1479 24.1481 19.3805 24.1481 13.4997C24.1481 7.6189 19.3808 2.85156 13.5 2.85156C7.61914 2.85156 2.85181 7.6189 2.85181 13.4997C2.85181 19.3805 7.61914 24.1479 13.5 24.1479Z" fill="white" stroke="white" stroke-width="2" stroke-miterlimit="10"/>
<path d="M7.59814 15.8147V11.1851L10.3759 15.8147V11.1851" stroke="#010E2D" stroke-miterlimit="10" stroke-linecap="round" stroke-linejoin="round"/>
<path d="M12.2278 15.8147V11.1851H15.0056" stroke="#010E2D" stroke-miterlimit="10" stroke-linecap="round" stroke-linejoin="round"/>
<path d="M12.2278 13.5H14.0796" stroke="#010E2D" stroke-miterlimit="10" stroke-linecap="round" stroke-linejoin="round"/>
<path d="M16.3984 11.1851H19.4017" stroke="#010E2D" stroke-miterlimit="10" stroke-linecap="round" stroke-linejoin="round"/>
<path d="M17.9004 11.1851V15.8147" stroke="#010E2D" stroke-miterlimit="10" stroke-linecap="round" stroke-linejoin="round"/>
<path d="M10.3272 20.1702L10.3245 18.7642L11.4152 17.6396" stroke="#010E2D" stroke-width="0.5" stroke-miterlimit="10" stroke-linecap="round" stroke-linejoin="round"/>
<path d="M10.3273 21.6926C10.7476 21.6926 11.0884 21.3519 11.0884 20.9315C11.0884 20.5112 10.7476 20.1704 10.3273 20.1704C9.90692 20.1704 9.56616 20.5112 9.56616 20.9315C9.56616 21.3519 9.90692 21.6926 10.3273 21.6926Z" fill="#010E2D" stroke="#010E2D" stroke-width="0.5" stroke-miterlimit="10" stroke-linecap="round" stroke-linejoin="round"/>
<path d="M16.6727 20.1702L16.6755 18.7642L15.5847 17.6396" stroke="#010E2D" stroke-width="0.5" stroke-miterlimit="10" stroke-linecap="round" stroke-linejoin="round"/>
<path d="M16.6727 21.6926C17.0931 21.6926 17.4338 21.3519 17.4338 20.9315C17.4338 20.5112 17.0931 20.1704 16.6727 20.1704C16.2524 20.1704 15.9116 20.5112 15.9116 20.9315C15.9116 21.3519 16.2524 21.6926 16.6727 21.6926Z" fill="#010E2D" stroke="#010E2D" stroke-width="0.5" stroke-miterlimit="10" stroke-linecap="round" stroke-linejoin="round"/>
<path d="M13.5 18.4692V21.2641" stroke="#010E2D" stroke-width="0.5" stroke-miterlimit="10" stroke-linecap="round" stroke-linejoin="round"/>
<path d="M13.4999 22.7864C13.9202 22.7864 14.261 22.4456 14.261 22.0253C14.261 21.6049 13.9202 21.2642 13.4999 21.2642C13.0795 21.2642 12.7388 21.6049 12.7388 22.0253C12.7388 22.4456 13.0795 22.7864 13.4999 22.7864Z" fill="#010E2D" stroke="#010E2D" stroke-width="0.5" stroke-miterlimit="10" stroke-linecap="round" stroke-linejoin="round"/>
<path d="M10.3272 6.82959L10.3245 8.23561L11.4152 9.36015" stroke="#010E2D" stroke-width="0.5" stroke-miterlimit="10" stroke-linecap="round" stroke-linejoin="round"/>
<path d="M10.3273 6.82984C10.7476 6.82984 11.0884 6.48908 11.0884 6.06873C11.0884 5.64838 10.7476 5.30762 10.3273 5.30762C9.90692 5.30762 9.56616 5.64838 9.56616 6.06873C9.56616 6.48908 9.90692 6.82984 10.3273 6.82984Z" fill="#010E2D" stroke="#010E2D" stroke-width="0.5" stroke-miterlimit="10" stroke-linecap="round" stroke-linejoin="round"/>
<path d="M16.6727 6.82959L16.6755 8.23561L15.5847 9.36015" stroke="#010E2D" stroke-width="0.5" stroke-miterlimit="10" stroke-linecap="round" stroke-linejoin="round"/>
<path d="M16.6727 6.82984C17.0931 6.82984 17.4338 6.48908 17.4338 6.06873C17.4338 5.64838 17.0931 5.30762 16.6727 5.30762C16.2524 5.30762 15.9116 5.64838 15.9116 6.06873C15.9116 6.48908 16.2524 6.82984 16.6727 6.82984Z" fill="#010E2D" stroke="#010E2D" stroke-width="0.5" stroke-miterlimit="10" stroke-linecap="round" stroke-linejoin="round"/>
<path d="M13.5 8.53075V5.73584" stroke="#010E2D" stroke-width="0.5" stroke-miterlimit="10" stroke-linecap="round" stroke-linejoin="round"/>
<path d="M13.4999 5.73609C13.9202 5.73609 14.261 5.39533 14.261 4.97498C14.261 4.55463 13.9202 4.21387 13.4999 4.21387C13.0795 4.21387 12.7388 4.55463 12.7388 4.97498C12.7388 5.39533 13.0795 5.73609 13.4999 5.73609Z" fill="#010E2D" stroke="#010E2D" stroke-width="0.5" stroke-miterlimit="10" stroke-linecap="round" stroke-linejoin="round"/>
</svg>
