<svg width="16" height="15" viewBox="0 0 16 15" fill="none" xmlns="http://www.w3.org/2000/svg">
<path d="M5.80834 2.09167C5.65782 2.63155 5.58211 3.18953 5.58334 3.75C5.58334 7.15 8.35 9.91667 11.75 9.91667C12.3167 9.91667 12.875 9.84167 13.4083 9.69167C12.9706 10.7673 12.2224 11.6881 11.2591 12.3367C10.2959 12.9853 9.16126 13.3322 8 13.3333C4.78334 13.3333 2.16667 10.7167 2.16667 7.5C2.16667 5.05833 3.675 2.95833 5.80834 2.09167ZM8 0C6.51664 0 5.0666 0.439867 3.83323 1.26398C2.59986 2.08809 1.63856 3.25943 1.07091 4.62987C0.50325 6.00032 0.354725 7.50832 0.644114 8.96318C0.933503 10.418 1.64781 11.7544 2.6967 12.8033C3.7456 13.8522 5.08197 14.5665 6.53683 14.8559C7.99168 15.1453 9.49968 14.9968 10.8701 14.4291C12.2406 13.8614 13.4119 12.9001 14.236 11.6668C15.0601 10.4334 15.5 8.98336 15.5 7.5C15.5 7.11667 15.4667 6.73333 15.4167 6.36667C15.0003 6.95055 14.4501 7.42622 13.8122 7.75388C13.1743 8.08153 12.4671 8.25165 11.75 8.25C10.796 8.25002 9.86666 7.94703 9.096 7.38472C8.32534 6.8224 7.75321 6.02984 7.46212 5.12134C7.17102 4.21284 7.17602 3.23536 7.47639 2.32988C7.77676 1.4244 8.35697 0.637734 9.13334 0.0833333C8.76667 0.0333333 8.38334 0 8 0Z" fill="white"/>
</svg>
