<svg width="18" height="19" viewBox="0 0 18 19" fill="none" xmlns="http://www.w3.org/2000/svg">
<path d="M8.95006 4.33125C8.43131 4.33125 8.01256 3.9125 8.01256 3.39375V1.6875C8.01256 1.175 8.43131 0.75 8.95006 0.75C9.46256 0.75 9.88756 1.16875 9.88756 1.6875V3.39375C9.88756 3.9125 9.46256 4.33125 8.95006 4.33125ZM8.95006 14.05C6.41256 14.05 4.34381 11.9875 4.34381 9.44375C4.34381 8.2221 4.82911 7.05048 5.69295 6.18664C6.55679 5.3228 7.72841 4.8375 8.95006 4.8375C10.1717 4.8375 11.3433 5.3228 12.2072 6.18664C13.071 7.05048 13.5563 8.2221 13.5563 9.44375C13.5563 11.9875 11.4876 14.05 8.95006 14.05ZM8.95006 6.71875C7.44381 6.71875 6.21881 7.94375 6.21881 9.45C6.21881 10.9563 7.44381 12.1813 8.95006 12.1813C10.4563 12.1813 11.6813 10.9563 11.6813 9.45C11.6797 8.72613 11.3914 8.03239 10.8795 7.52054C10.3677 7.00869 9.67393 6.7204 8.95006 6.71875ZM4.00631 5.83125C4.36881 6.19375 4.96881 6.19375 5.33131 5.83125C5.69381 5.46875 5.69381 4.86875 5.33131 4.50625L4.12506 3.3C3.76256 2.9375 3.16256 2.9375 2.80006 3.3C2.43756 3.6625 2.43756 4.2625 2.80006 4.625L4.00631 5.83125ZM3.83131 9.45C3.83131 9.96875 3.41256 10.3875 2.89381 10.3875H1.18756C0.675061 10.3875 0.250061 9.96875 0.250061 9.45C0.250061 8.9375 0.668811 8.5125 1.18756 8.5125H2.89381C3.41256 8.5125 3.83131 8.93125 3.83131 9.45ZM5.33131 14.3938C5.69381 14.0312 5.69381 13.4312 5.33131 13.0687C5.24469 12.9811 5.14153 12.9115 5.02781 12.8639C4.91409 12.8164 4.79206 12.792 4.66881 12.792C4.54556 12.792 4.42354 12.8164 4.30981 12.8639C4.19609 12.9115 4.09293 12.9811 4.00631 13.0687L2.80006 14.275C2.43756 14.6375 2.43756 15.2375 2.80006 15.6C3.16256 15.9625 3.76256 15.9625 4.12506 15.6L5.33131 14.3938ZM8.95006 14.5625C9.46881 14.5625 9.88756 14.9812 9.88756 15.5V17.2062C9.88756 17.7188 9.46881 18.1437 8.95006 18.1437C8.43756 18.1437 8.01256 17.725 8.01256 17.2062V15.5C8.01256 14.9875 8.43131 14.5625 8.95006 14.5625ZM13.8938 13.0687C13.5313 12.7062 12.9313 12.7062 12.5688 13.0687C12.4811 13.1554 12.4115 13.2585 12.364 13.3723C12.3165 13.486 12.292 13.608 12.292 13.7313C12.292 13.8545 12.3165 13.9765 12.364 14.0902C12.4115 14.204 12.4811 14.3071 12.5688 14.3938L13.7751 15.6C14.1376 15.9625 14.7376 15.9625 15.1001 15.6C15.4626 15.2375 15.4626 14.6375 15.1001 14.275L13.8938 13.0687ZM14.0626 9.45C14.0626 8.93125 14.4813 8.5125 15.0001 8.5125H16.7063C17.2188 8.5125 17.6438 8.93125 17.6438 9.45C17.6438 9.9625 17.2251 10.3875 16.7063 10.3875H15.0001C14.4876 10.3875 14.0626 9.9625 14.0626 9.45ZM12.5688 4.50625C12.2063 4.86875 12.2063 5.46875 12.5688 5.83125C12.9313 6.19375 13.5251 6.19375 13.8938 5.83125L15.1001 4.625C15.4626 4.2625 15.4626 3.6625 15.1001 3.3C14.7376 2.9375 14.1376 2.9375 13.7751 3.3L12.5688 4.50625Z" fill="url(#paint0_linear_22_4836)"/>
<defs>
<linearGradient id="paint0_linear_22_4836" x1="0.250061" y1="9.44688" x2="16.5396" y2="13.7292" gradientUnits="userSpaceOnUse">
<stop stop-color="#80FFCC"/>
<stop offset="1" stop-color="#0DDACE"/>
</linearGradient>
</defs>
</svg>
