<svg width="32" height="33" viewBox="0 0 32 33" fill="none" xmlns="http://www.w3.org/2000/svg">
<path d="M16.3256 12.6508C14.0932 12.6508 12.2714 14.4995 12.2714 16.7649C12.2714 19.0303 14.0932 20.879 16.3256 20.879C18.558 20.879 20.3798 19.0303 20.3798 16.7649C20.3798 14.4995 18.558 12.6508 16.3256 12.6508ZM28.4851 16.7649C28.4851 15.0612 28.5003 13.373 28.406 11.6724C28.3117 9.69709 27.8677 7.94403 26.4443 6.49961C25.0179 5.0521 23.2934 4.60458 21.3469 4.5089C19.6681 4.41322 18.0044 4.42865 16.3286 4.42865C14.6498 4.42865 12.9861 4.41322 11.3103 4.5089C9.36383 4.60458 7.63632 5.05519 6.21295 6.49961C4.78653 7.94712 4.34553 9.69709 4.25125 11.6724C4.15696 13.3761 4.17217 15.0643 4.17217 16.7649C4.17217 18.4655 4.15696 20.1568 4.25125 21.8574C4.34553 23.8327 4.78957 25.5858 6.21295 27.0302C7.63936 28.4777 9.36383 28.9252 11.3103 29.0209C12.9892 29.1166 14.6528 29.1011 16.3286 29.1011C18.0075 29.1011 19.6711 29.1166 21.3469 29.0209C23.2934 28.9252 25.0209 28.4746 26.4443 27.0302C27.8707 25.5827 28.3117 23.8327 28.406 21.8574C28.5033 20.1568 28.4851 18.4686 28.4851 16.7649ZM16.3256 23.095C12.8736 23.095 10.0877 20.2679 10.0877 16.7649C10.0877 13.2619 12.8736 10.4347 16.3256 10.4347C19.7776 10.4347 22.5635 13.2619 22.5635 16.7649C22.5635 20.2679 19.7776 23.095 16.3256 23.095ZM22.819 11.6539C22.013 11.6539 21.3621 10.9934 21.3621 10.1755C21.3621 9.35759 22.013 8.69711 22.819 8.69711C23.6249 8.69711 24.2758 9.35759 24.2758 10.1755C24.276 10.3697 24.2385 10.562 24.1654 10.7415C24.0923 10.921 23.985 11.0841 23.8496 11.2214C23.7143 11.3587 23.5536 11.4676 23.3768 11.5418C23.1999 11.616 23.0104 11.6541 22.819 11.6539Z" fill="#0B0A3A"/>
</svg>
