<svg width="32" height="33" viewBox="0 0 32 33" fill="none" xmlns="http://www.w3.org/2000/svg">
<path d="M15.9741 5C13.1247 5.00012 10.3683 6.01413 8.19811 7.8606C6.02793 9.70706 4.58558 12.2655 4.12914 15.0781C3.6727 17.8907 4.23196 20.774 5.70685 23.212C7.18174 25.65 9.47601 27.4836 12.1792 28.3848C12.7791 28.4898 13.0041 28.1299 13.0041 27.8148C13.0041 27.5298 12.9891 26.5848 12.9891 25.5799C9.97414 26.1348 9.19415 24.8449 8.95415 24.1699C8.68784 23.5134 8.26568 22.9317 7.72416 22.4749C7.30416 22.2499 6.70417 21.6949 7.70915 21.6799C8.09289 21.7215 8.46094 21.8551 8.78211 22.0692C9.10328 22.2833 9.3681 22.5717 9.55415 22.9099C9.71827 23.2047 9.93896 23.4643 10.2036 23.6737C10.4682 23.8831 10.7715 24.0382 11.0962 24.1301C11.4208 24.2221 11.7605 24.2491 12.0956 24.2096C12.4307 24.1701 12.7547 24.0648 13.0491 23.8999C13.101 23.2898 13.3729 22.7194 13.8141 22.2949C11.1441 21.9949 8.35415 20.9599 8.35415 16.37C8.33729 15.1773 8.77737 14.0235 9.58415 13.145C9.21729 12.1084 9.26021 10.9709 9.70414 9.965C9.70414 9.965 10.7091 9.64999 13.0041 11.195C14.9677 10.655 17.0405 10.655 19.0041 11.195C21.299 9.635 22.3041 9.965 22.3041 9.965C22.748 10.9709 22.791 12.1085 22.4241 13.145C23.2333 14.022 23.6737 15.1768 23.654 16.37C23.654 20.9749 20.849 21.9949 18.1791 22.2949C18.4655 22.5852 18.686 22.9337 18.8258 23.3167C18.9655 23.6998 19.0212 24.1084 18.9891 24.5149C18.9891 26.1199 18.9741 27.4099 18.9741 27.8149C18.9741 28.1299 19.1991 28.5049 19.7991 28.3849C22.4974 27.4763 24.7851 25.6384 26.2537 23.1991C27.7223 20.7599 28.2763 17.8781 27.8167 15.0682C27.3571 12.2583 25.9138 9.70321 23.7446 7.85899C21.5754 6.01477 18.8213 5.00148 15.9741 5Z" fill="#0B0A3A"/>
</svg>
