<svg width="32" height="31" viewBox="0 0 32 31" fill="none" xmlns="http://www.w3.org/2000/svg">
<path d="M19.4128 22.3584C18.4515 23.0633 17.2606 23.3815 16.0758 23.25C14.8925 23.3818 13.703 23.064 12.743 22.3597C12.4784 22.097 12.1205 21.9498 11.7476 21.9503C11.3747 21.9508 11.0172 22.0991 10.7533 22.3626C10.4894 22.6261 10.3407 22.9834 10.3397 23.3563C10.3386 23.7292 10.4854 24.0873 10.7477 24.3523C11.4763 24.9795 12.3231 25.4544 13.2382 25.7491C14.1533 26.0438 15.1181 26.1523 16.0758 26.0682C17.0336 26.1519 17.9984 26.0434 18.9137 25.749C19.8289 25.4545 20.676 24.9801 21.4053 24.3536C21.5368 24.2229 21.6412 24.0675 21.7126 23.8964C21.7839 23.7253 21.8208 23.5417 21.8212 23.3563C21.8215 23.1709 21.7852 22.9872 21.7145 22.8159C21.6438 22.6445 21.5399 22.4887 21.4089 22.3575C21.2779 22.2263 21.1223 22.1223 20.951 22.0513C20.7797 21.9803 20.5961 21.9438 20.4107 21.9439C20.2252 21.944 20.0417 21.9806 19.8704 22.0517C19.6992 22.1229 19.5437 22.227 19.4128 22.3584ZM12.0719 19.7297C12.3506 19.7296 12.623 19.6468 12.8547 19.4919C13.0864 19.337 13.2669 19.1169 13.3735 18.8594C13.48 18.6019 13.5079 18.3186 13.4534 18.0453C13.399 17.7719 13.2647 17.5209 13.0676 17.3239C12.8704 17.1269 12.6193 16.9928 12.346 16.9385C12.0726 16.8842 11.7893 16.9122 11.5319 17.0189C11.2744 17.1256 11.0544 17.3063 10.8996 17.5381C10.7449 17.7698 10.6623 18.0423 10.6624 18.321C10.6628 18.6946 10.8115 19.0528 11.0757 19.3169C11.34 19.581 11.6983 19.7295 12.0719 19.7297ZM20.5264 16.9115C20.2477 16.9114 19.9753 16.994 19.7435 17.1487C19.5117 17.3035 19.3311 17.5235 19.2243 17.7809C19.1176 18.0384 19.0896 18.3217 19.1439 18.5951C19.1982 18.8684 19.3323 19.1195 19.5293 19.3166C19.7263 19.5138 19.9774 19.648 20.2507 19.7025C20.524 19.7569 20.8073 19.7291 21.0648 19.6226C21.3223 19.516 21.5425 19.3354 21.6974 19.1038C21.8523 18.8721 21.935 18.5997 21.9351 18.321C21.9347 17.9474 21.7862 17.5893 21.5221 17.3251C21.258 17.0608 20.9 16.9121 20.5264 16.9115ZM31.5166 15.1905C31.5192 14.073 31.1694 12.9831 30.517 12.0758C29.8647 11.1684 28.9429 10.4899 27.8827 10.1365C26.8226 9.78308 25.678 9.77287 24.6117 10.1073C23.5454 10.4417 22.6117 11.1037 21.9433 11.9993C20.5349 11.6407 19.096 11.415 17.6455 11.325L18.8513 3.2862L21.7928 4.28642C21.8063 5.40541 22.2633 6.47332 23.0635 7.25558C23.8638 8.03784 24.9418 8.47048 26.0608 8.45847C27.1798 8.44646 28.2483 7.99078 29.0316 7.19152C29.8148 6.39227 30.2488 5.3148 30.2382 4.19578V4.1641C30.2113 3.05729 29.7553 2.00426 28.9666 1.22733C28.1779 0.450392 27.1181 0.0103628 26.011 0.000141029C25.3758 0.00488792 24.7499 0.153846 24.1807 0.435775C23.6114 0.717704 23.1136 1.12524 22.7249 1.62763L18.1619 0.0758229C17.9666 0.0089961 17.759 -0.0140682 17.5538 0.00826401C17.3487 0.0305962 17.1509 0.0977786 16.9745 0.205051C16.7982 0.312324 16.6476 0.457062 16.5334 0.629012C16.4193 0.800962 16.3443 0.995915 16.3139 1.20006L14.797 11.3109C13.2088 11.3804 11.6317 11.6111 10.09 11.9993C9.2737 10.8982 8.06312 10.1555 6.71165 9.92667C5.36019 9.69784 3.97259 10.0006 2.83929 10.7716C1.70598 11.5426 0.914812 12.7221 0.631366 14.0631C0.347919 15.4042 0.594167 16.8029 1.31857 17.9666C0.799363 18.943 0.524234 20.0306 0.516688 21.1364C0.516688 26.6668 7.32539 31 16.0166 31C24.7079 31 31.5166 26.6668 31.5166 21.1364C31.5091 20.0309 31.2341 18.9437 30.7153 17.9675C31.233 17.1333 31.5103 16.1723 31.5166 15.1905ZM26.011 2.81831C26.2897 2.81831 26.5621 2.90095 26.7938 3.05578C27.0255 3.21062 27.2061 3.43068 27.3128 3.68816C27.4194 3.94564 27.4473 4.22896 27.393 4.50229C27.3386 4.77563 27.2044 5.0267 27.0073 5.22377C26.8103 5.42083 26.5592 5.55503 26.2859 5.6094C26.0125 5.66377 25.7292 5.63587 25.4717 5.52922C25.2143 5.42257 24.9942 5.24196 24.8394 5.01024C24.6845 4.77852 24.6019 4.50609 24.6019 4.22739C24.6079 3.85558 24.7583 3.50068 25.0213 3.23773C25.2842 2.97478 25.6391 2.82438 26.011 2.81831ZM5.84341 12.6819C6.28134 12.6873 6.71001 12.8086 7.08583 13.0335C5.72571 13.6184 4.4665 14.4144 3.35473 15.3921C3.34909 15.3247 3.33486 15.2583 3.33486 15.1905C3.33571 14.5254 3.60028 13.8878 4.07054 13.4176C4.5408 12.9473 5.17837 12.6828 5.84341 12.6819ZM16.0166 28.1818C9.14183 28.1818 3.33486 24.955 3.33486 21.1364C3.33486 17.3178 9.14183 14.091 16.0166 14.091C22.8914 14.091 28.6984 17.3178 28.6984 21.1364C28.6984 24.955 22.8914 28.1818 16.0166 28.1818ZM28.6785 15.3922C27.5668 14.4144 26.3076 13.6184 24.9474 13.0335C25.3233 12.8086 25.7519 12.6873 26.1899 12.6819C26.8549 12.6828 27.4925 12.9473 27.9627 13.4176C28.433 13.8878 28.6976 14.5254 28.6984 15.1905C28.6984 15.2582 28.6842 15.3248 28.6785 15.3922Z" fill="#0B0A3A"/>
</svg>
