<svg width="35" height="33" viewBox="0 0 35 33" fill="none" xmlns="http://www.w3.org/2000/svg">
<path d="M33.3453 22.9624C32.3633 22.7367 31.4373 22.318 30.6224 21.7314C29.8076 21.1448 29.1205 20.4023 28.6022 19.548C28.3657 19.2029 28.0001 18.9647 27.5858 18.8859C27.1715 18.807 26.7424 18.894 26.393 19.1276C26.0436 19.3612 25.8025 19.7223 25.7226 20.1316C25.6428 20.5408 25.7308 20.9646 25.9673 21.3097C26.9529 22.7948 28.2578 24.0471 29.7892 24.9773C29.5748 25.0172 29.3417 25.0556 29.0869 25.0955C28.6344 25.1906 28.2243 25.4258 27.9164 25.7669C27.6085 26.108 27.4188 26.5372 27.3749 26.9921C26.3143 26.8135 25.231 26.8115 24.1698 26.986C23.0255 27.2355 21.9577 27.7505 21.0548 28.4883C20.126 29.3019 18.9476 29.7839 17.7084 29.8571H17.2936C16.0529 29.7836 14.8733 29.3005 13.944 28.4853C13.0539 27.7571 12.0028 27.2461 10.8756 26.9937C9.80049 26.8241 8.70473 26.8262 7.63024 26.9999C7.58829 26.5471 7.40207 26.1191 7.09835 25.7775C6.79463 25.4358 6.38905 25.1981 5.93993 25.0985C5.68979 25.0601 5.45986 25.0218 5.24857 24.9819C6.32994 24.364 7.29582 23.5672 8.10409 22.6264C8.47709 22.199 8.81479 21.7428 9.11393 21.2622C9.33718 20.9089 9.40931 20.4826 9.31447 20.0768C9.21964 19.671 8.9656 19.3191 8.60818 19.0982C8.25076 18.8774 7.81919 18.8057 7.4083 18.899C6.99741 18.9922 6.64082 19.2428 6.41687 19.5956C6.20494 19.9362 5.96652 20.2599 5.70377 20.5639C4.68705 21.8214 3.24501 22.6742 1.64267 22.9655C1.1776 23.0383 0.754984 23.275 0.453053 23.6319C0.151123 23.9888 -0.00966754 24.4417 0.000449983 24.9067C-8.45455e-05 25.1958 0.0624457 25.4815 0.183784 25.7446C0.685597 26.8694 2.02169 27.5799 4.61308 28.0617L4.66281 28.2658C4.70786 28.4515 4.75446 28.6403 4.80884 28.8121C4.9308 29.2487 5.19742 29.6323 5.56608 29.9016C5.93475 30.1709 6.38416 30.3103 6.8425 30.2976C7.16635 30.2894 7.48809 30.2436 7.80107 30.161C8.63328 29.9944 9.48823 29.97 10.3288 30.0889C10.9879 30.2816 11.5973 30.6124 12.1154 31.0587C13.578 32.2514 15.3982 32.9338 17.2936 33H17.7084C19.6156 32.9308 21.4463 32.2414 22.916 31.0389C23.4366 30.5914 24.0518 30.2642 24.7167 30.0813C25.0444 30.0244 25.3766 29.9966 25.7094 29.9985C26.2206 29.9976 26.7303 30.0537 27.2288 30.1657C27.5517 30.2253 27.8791 30.2587 28.2076 30.2655C28.6544 30.2774 29.0923 30.141 29.4514 29.8781C29.8105 29.6152 30.07 29.2411 30.1884 28.8153C30.249 28.6235 30.2956 28.4394 30.3391 28.2583L30.3888 28.0635C32.9724 27.5832 34.3132 26.8773 34.7917 25.8C34.9128 25.566 34.9817 25.3091 34.9937 25.0465C35.0331 24.5584 34.8856 24.0734 34.5804 23.6875C34.2751 23.3015 33.8344 23.0428 33.3453 22.9624ZM4.47171 15.9449C4.79722 16.0058 5.13384 15.9653 5.43499 15.8289C5.73615 15.6925 5.98695 15.4671 6.15271 15.1838C6.78284 15.5006 7.4739 15.6815 8.18015 15.7147C8.92949 15.7245 9.65267 15.4429 10.1936 14.9306C10.3648 14.773 10.4986 14.58 10.5856 14.3654C10.6726 14.1508 10.7106 13.92 10.697 13.6892L10.6395 12.7439C10.3789 10.8789 10.4632 8.98264 10.8881 7.14732C11.425 5.94185 12.31 4.91959 13.4322 4.20853C14.5545 3.49747 15.8642 3.1292 17.1973 3.14982L17.8141 3.14368C19.146 3.12612 20.4537 3.49627 21.574 4.20798C22.6943 4.91968 23.5777 5.94144 24.114 7.1458C24.539 8.98264 24.6232 10.8804 24.3626 12.7469L24.347 13.0032L24.3035 13.6999C24.2947 13.9268 24.3344 14.153 24.4201 14.3637C24.5058 14.5745 24.6354 14.765 24.8007 14.9229C25.3361 15.4328 26.0518 15.7164 26.7955 15.7132C27.4858 15.6537 28.1572 15.4585 28.7701 15.1393C28.8944 15.4189 29.0983 15.6567 29.3571 15.8237C29.6159 15.9908 29.9183 16.0798 30.2274 16.08H30.2554C30.6773 16.0726 31.079 15.9 31.3721 15.6002C31.6652 15.3003 31.8257 14.8977 31.8183 14.481C31.777 13.9562 31.5742 13.4565 31.237 13.0488C30.8999 12.6412 30.4446 12.3452 29.9322 12.2006C29.559 12.0497 29.1592 11.9734 28.756 11.9763C28.3527 11.9792 27.9541 12.0612 27.5832 12.2175C27.8619 10.0849 27.6695 7.91805 27.0192 5.86597C26.2363 4.10121 24.9441 2.60359 23.3041 1.56041C21.6641 0.517223 19.7491 -0.0252248 17.7986 0.000901191L17.174 0.00704521C15.2285 -0.0164398 13.3191 0.526921 11.6844 1.56923C10.0497 2.61154 8.76221 4.10657 7.98285 5.86751C7.32768 7.94715 7.13686 10.1424 7.42355 12.3019C7.36918 12.2773 7.31014 12.2497 7.24644 12.2206C6.8577 12.0652 6.44058 11.991 6.02138 12.0028C5.60219 12.0145 5.19 12.1119 4.81079 12.2888C4.43159 12.4657 4.0936 12.7183 3.81812 13.0306C3.54264 13.3429 3.33565 13.7082 3.21019 14.1034C3.13069 14.5128 3.21887 14.9366 3.45538 15.2819C3.69189 15.6271 4.05741 15.8656 4.47171 15.9449Z" fill="url(#paint0_linear_370_127)"/>
<defs>
<linearGradient id="paint0_linear_370_127" x1="17.5" y1="0" x2="17.5" y2="33" gradientUnits="userSpaceOnUse">
<stop stop-color="#5CE1E6"/>
<stop offset="1" stop-color="#35A0A4"/>
</linearGradient>
</defs>
</svg>
