<svg width="16" height="16" viewBox="0 0 16 16" fill="none" xmlns="http://www.w3.org/2000/svg">
<path d="M8 0.25C12.2812 0.25 15.75 3.71875 15.75 8C15.75 12.2812 12.2812 15.75 8 15.75C3.71875 15.75 0.25 12.2812 0.25 8C0.25 3.71875 3.71875 0.25 8 0.25ZM11.7812 5.5625C11.9062 5.0625 11.5938 4.84375 11.25 4.96875L3.78125 7.84375C3.28125 8.03125 3.28125 8.34375 3.6875 8.46875L5.59375 9.0625L10.0312 6.25C10.25 6.125 10.4375 6.21875 10.2812 6.34375L6.6875 9.59375L6.5625 11.5625C6.75 11.5625 6.84375 11.4688 6.9375 11.375L7.875 10.4688L9.8125 11.9062C10.1875 12.0938 10.4375 12 10.5312 11.5625L11.7812 5.5625Z" fill="#F3F3F3"/>
</svg>
