<svg width="29" height="33" viewBox="0 0 29 33" fill="none" xmlns="http://www.w3.org/2000/svg">
<path d="M28.8 13.95V8.27C26.14 8.27 24.11 7.56 22.8 6.18C21.4555 4.60505 20.7022 2.61055 20.67 0.54V0.13L15.3 0V23.07C15.1158 24.0766 14.6272 25.0024 13.9001 25.7224C13.1731 26.4425 12.2426 26.9222 11.2343 27.0967C10.2261 27.2712 9.1885 27.1321 8.26175 26.6982C7.335 26.2644 6.56368 25.5566 6.05192 24.6705C5.54015 23.7844 5.31259 22.7626 5.39994 21.7431C5.48729 20.7235 5.88536 19.7553 6.5404 18.9692C7.19544 18.1831 8.07592 17.6168 9.06296 17.3469C10.05 17.0771 11.0961 17.1165 12.06 17.46V11.96C11.498 11.8679 10.9295 11.8211 10.36 11.82C8.31099 11.82 6.30799 12.4276 4.6043 13.566C2.9006 14.7043 1.57274 16.3224 0.788613 18.2154C0.00448865 20.1084 -0.200674 22.1915 0.199069 24.2011C0.598812 26.2108 1.58551 28.0568 3.03438 29.5056C4.48325 30.9545 6.32922 31.9412 8.33887 32.3409C10.3485 32.7407 12.4316 32.5355 14.3246 31.7514C16.2176 30.9673 17.8357 29.6394 18.974 27.9357C20.1124 26.232 20.72 24.229 20.72 22.18C20.7189 21.7554 20.6922 21.3313 20.64 20.91V11.76C23.0818 13.2849 25.9228 14.0474 28.8 13.95Z" fill="#0B0A3A"/>
</svg>
