<svg width="37" height="25" viewBox="0 0 37 25" fill="none" xmlns="http://www.w3.org/2000/svg">
<path d="M36.4824 8.81079C36.5633 6.4975 36.0514 4.20153 34.9943 2.13605C34.277 1.28853 33.2816 0.716594 32.1815 0.519891C27.6312 0.111852 23.0621 -0.0553899 18.4938 0.018882C13.9421 -0.0587609 9.38942 0.103084 4.85512 0.50373C3.95867 0.664888 3.12906 1.08044 2.46754 1.69969C0.995739 3.0411 0.832206 5.33604 0.668673 7.27543C0.431406 10.7624 0.431406 14.2612 0.668673 17.7481C0.715983 18.8397 0.880438 19.9232 1.15927 20.9805C1.35645 21.7967 1.75539 22.5519 2.32036 23.1784C2.98638 23.8305 3.8353 24.2697 4.757 24.439C8.28264 24.8691 11.8351 25.0474 15.3867 24.9724C21.1103 25.0532 26.1308 24.9724 32.067 24.5198C33.0114 24.3609 33.8842 23.9211 34.5691 23.2592C35.0269 22.8066 35.3689 22.2525 35.5666 21.6431C36.1515 19.8695 36.4387 18.0134 36.417 16.1481C36.4824 15.2431 36.4824 9.78048 36.4824 8.81079ZM14.7979 17.1178V7.11382L24.4791 12.1401C21.7644 13.6269 18.1831 15.3077 14.7979 17.1178Z" fill="#0B0A3A"/>
</svg>
